<svg width="68" height="85" viewBox="0 0 68 85" fill="none" xmlns="http://www.w3.org/2000/svg">
<path fill-rule="evenodd" clip-rule="evenodd" d="M18.0446 9.16683C19.7605 4.31186 24.3907 0.833496 29.8333 0.833496H38.1666C43.6092 0.833496 48.2394 4.31186 49.9553 9.16683H54.8333C61.7368 9.16683 67.3333 14.7633 67.3333 21.6668V71.6668C67.3333 78.5704 61.7368 84.1668 54.8333 84.1668H13.1666C6.26307 84.1668 0.666626 78.5704 0.666626 71.6668V21.6668C0.666626 14.7633 6.26307 9.16683 13.1666 9.16683H18.0446ZM18.0446 17.5002H13.1666C10.8654 17.5002 8.99996 19.3656 8.99996 21.6668V71.6668C8.99996 73.968 10.8654 75.8335 13.1666 75.8335H54.8333C57.1345 75.8335 59 73.968 59 71.6668V21.6668C59 19.3656 57.1345 17.5002 54.8333 17.5002H49.9553C48.2394 22.3551 43.6092 25.8335 38.1666 25.8335H29.8333C24.3907 25.8335 19.7605 22.3551 18.0446 17.5002ZM29.8333 9.16683C27.5321 9.16683 25.6666 11.0323 25.6666 13.3335C25.6666 15.6347 27.5321 17.5002 29.8333 17.5002H38.1666C40.4678 17.5002 42.3333 15.6347 42.3333 13.3335C42.3333 11.0323 40.4678 9.16683 38.1666 9.16683H29.8333ZM49.4462 39.5539C51.0734 41.1811 51.0734 43.8193 49.4462 45.4464L32.7796 62.1131C31.1524 63.7403 28.5142 63.7403 26.887 62.1131L18.5537 53.7798C16.9265 52.1526 16.9265 49.5144 18.5537 47.8872C20.1809 46.26 22.819 46.26 24.4462 47.8872L29.8333 53.2743L43.5537 39.5539C45.1809 37.9267 47.819 37.9267 49.4462 39.5539Z" fill="#00CB08"/>
</svg>
