<svg width="16" height="16" viewBox="0 0 16 16" fill="none" xmlns="http://www.w3.org/2000/svg">
<path fill-rule="evenodd" clip-rule="evenodd" d="M3.5 2.75C3.5 1.50736 4.50736 0.5 5.75 0.5H10.25C11.4926 0.5 12.5 1.50736 12.5 2.75V3.62803C13.3739 3.93691 14 4.77034 14 5.75V6.62803C14.8739 6.93691 15.5 7.77034 15.5 8.75V13.25C15.5 14.4926 14.4926 15.5 13.25 15.5H2.75C1.50736 15.5 0.5 14.4926 0.5 13.25V8.75C0.5 7.77034 1.12611 6.93691 2 6.62803V5.75C2 4.77034 2.62611 3.93691 3.5 3.62803V2.75ZM5 3.5H11V2.75C11 2.33579 10.6642 2 10.25 2H5.75C5.33579 2 5 2.33579 5 2.75V3.5ZM3.5 6.5H12.5V5.75C12.5 5.33579 12.1642 5 11.75 5H4.25C3.83579 5 3.5 5.33579 3.5 5.75V6.5ZM2.75 8C2.33579 8 2 8.33579 2 8.75V13.25C2 13.6642 2.33579 14 2.75 14H13.25C13.6642 14 14 13.6642 14 13.25V8.75C14 8.33579 13.6642 8 13.25 8H2.75Z" fill="#787878"/>
</svg>
