<svg width="20" height="20" viewBox="0 0 20 20" fill="none" xmlns="http://www.w3.org/2000/svg">
<path fill-rule="evenodd" clip-rule="evenodd" d="M5.09402 3.6798L16.3202 14.906C18.7627 11.7676 18.5416 7.22787 15.6569 4.34315C12.7721 1.45842 8.23245 1.23731 5.09402 3.6798ZM14.906 16.3202L3.6798 5.09402C1.23731 8.23245 1.45842 12.7721 4.34315 15.6569C7.22787 18.5416 11.7676 18.7627 14.906 16.3202ZM2.92893 2.92893C6.83418 -0.976311 13.1658 -0.976311 17.0711 2.92893C20.9763 6.83418 20.9763 13.1658 17.0711 17.0711C13.1658 20.9763 6.83418 20.9763 2.92893 17.0711C-0.976311 13.1658 -0.976311 6.83418 2.92893 2.92893Z" fill="#111827"/>
</svg>
