<svg width="20" height="21" viewBox="0 0 20 21" fill="none" xmlns="http://www.w3.org/2000/svg">
<path fill-rule="evenodd" clip-rule="evenodd" d="M7.35285 2.83432C8.02658 0.0591297 11.9734 0.0591342 12.6471 2.83432C12.7628 3.31083 13.3088 3.53695 13.7275 3.28181C16.1662 1.79586 18.9571 4.58669 17.4711 7.02544C17.216 7.44418 17.4421 7.9901 17.9186 8.10578C20.6938 8.77951 20.6938 12.7263 17.9186 13.4001C17.4421 13.5158 17.216 14.0617 17.4711 14.4804C18.9571 16.9192 16.1662 19.71 13.7275 18.224C13.3088 17.9689 12.7628 18.195 12.6471 18.6715C11.9734 21.4467 8.02658 21.4467 7.35285 18.6715C7.23717 18.195 6.69125 17.9689 6.27252 18.224C3.83376 19.71 1.04293 16.9192 2.52889 14.4804C2.78402 14.0617 2.5579 13.5158 2.08139 13.4001C-0.693795 12.7263 -0.6938 8.77951 2.08139 8.10578C2.5579 7.9901 2.78402 7.44418 2.52888 7.02544C1.04293 4.58669 3.83376 1.79585 6.27252 3.28181C6.69125 3.53695 7.23717 3.31082 7.35285 2.83432ZM10.7036 3.30616C10.5245 2.56852 9.47547 2.56852 9.2964 3.30615C8.86118 5.09889 6.80726 5.94966 5.23186 4.98974C4.58365 4.59478 3.84185 5.33657 4.23681 5.98478C5.19673 7.56019 4.34596 9.61411 2.55322 10.0493C1.81559 10.2284 1.81559 11.2775 2.55323 11.4565C4.34596 11.8918 5.19673 13.9457 4.23682 15.5211C3.84186 16.1693 4.58365 16.9111 5.23186 16.5161C6.80726 15.5562 8.86118 16.407 9.2964 18.1997C9.47547 18.9373 10.5245 18.9373 10.7036 18.1997C11.1388 16.407 13.1927 15.5562 14.7681 16.5161C15.4164 16.9111 16.1581 16.1693 15.7632 15.5211C14.8033 13.9457 15.654 11.8918 17.4468 11.4565C18.1844 11.2775 18.1844 10.2284 17.4468 10.0493C15.654 9.61411 14.8033 7.56019 15.7632 5.98478C16.1581 5.33657 15.4164 4.59478 14.7681 4.98975C13.1927 5.94966 11.1388 5.09889 10.7036 3.30616ZM10 8.75293C8.89543 8.75293 8 9.64836 8 10.7529C8 11.8575 8.89543 12.7529 10 12.7529C11.1046 12.7529 12 11.8575 12 10.7529C12 9.64836 11.1046 8.75293 10 8.75293ZM6 10.7529C6 8.54379 7.79086 6.75293 10 6.75293C12.2091 6.75293 14 8.54379 14 10.7529C14 12.9621 12.2091 14.7529 10 14.7529C7.79086 14.7529 6 12.9621 6 10.7529Z" fill="#787878"/>
</svg>
