<svg width="20" height="20" viewBox="0 0 20 20" fill="none" xmlns="http://www.w3.org/2000/svg">
<path fill-rule="evenodd" clip-rule="evenodd" d="M9.29289 0.292893C9.68342 -0.0976311 10.3166 -0.0976311 10.7071 0.292893L19.7071 9.29289C20.0976 9.68342 20.0976 10.3166 19.7071 10.7071C19.3166 11.0976 18.6834 11.0976 18.2929 10.7071L18 10.4142V18C18 19.1046 17.1046 20 16 20H4C2.89543 20 2 19.1046 2 18V10.4142L1.70711 10.7071C1.31658 11.0976 0.683417 11.0976 0.292893 10.7071C-0.0976311 10.3166 -0.0976311 9.68342 0.292893 9.29289L9.29289 0.292893ZM4 8.41421V18H7V14C7 12.8954 7.89543 12 9 12H11C12.1046 12 13 12.8954 13 14V18H16V8.41421L10 2.41421L4 8.41421ZM11 18V14H9V18H11Z" fill="#787878"/>
</svg>
