<svg width="20" height="17" viewBox="0 0 20 17" fill="none" xmlns="http://www.w3.org/2000/svg">
<path fill-rule="evenodd" clip-rule="evenodd" d="M0.000106305 3.75293C0.000106305 2.09608 1.34325 0.75293 3.00011 0.75293H17.0001C18.657 0.75293 20.0001 2.09608 20.0001 3.75293V4.73741C20.0002 4.74715 20.0002 4.75688 20.0001 4.76661V13.7529C20.0001 15.4098 18.657 16.7529 17.0001 16.7529H3.00011C1.34325 16.7529 0.000106305 15.4098 0.000106305 13.7529V4.7666C-3.53157e-05 4.75688 -3.55541e-05 4.74715 0.000106305 4.73742V3.75293ZM2.00011 6.62145V13.7529C2.00011 14.3052 2.44782 14.7529 3.00011 14.7529H17.0001C17.5524 14.7529 18.0001 14.3052 18.0001 13.7529V6.62145L11.6642 10.8454C10.6565 11.5172 9.3437 11.5172 8.33601 10.8454L2.00011 6.62145ZM18.0001 4.21775L10.5548 9.18128C10.2189 9.40521 9.78131 9.40521 9.44541 9.18128L2.00011 4.21775V3.75293C2.00011 3.20064 2.44782 2.75293 3.00011 2.75293H17.0001C17.5524 2.75293 18.0001 3.20064 18.0001 3.75293V4.21775Z" fill="#787878"/>
</svg>
