<svg width="22" height="21" viewBox="0 0 22 21" fill="none" xmlns="http://www.w3.org/2000/svg">
<path fill-rule="evenodd" clip-rule="evenodd" d="M1.35808 0.492844C1.7486 0.10232 2.38177 0.10232 2.77229 0.492844L5.81258 3.53314C7.37415 2.68295 9.16463 2.19995 11.0656 2.19995C15.9926 2.19995 20.1605 5.43841 21.5619 9.90034C21.6231 10.0954 21.6231 10.3046 21.5619 10.4996C20.9092 12.5778 19.6576 14.3885 18.0104 15.7309L20.7723 18.4928C21.1628 18.8834 21.1628 19.5165 20.7723 19.9071C20.3818 20.2976 19.7486 20.2976 19.3581 19.9071L1.35808 1.90706C0.967554 1.51653 0.967554 0.883369 1.35808 0.492844ZM7.30163 5.02218L9.03337 6.75392C9.62881 6.40224 10.3238 6.19995 11.0652 6.19995C13.2743 6.19995 15.0652 7.99081 15.0652 10.2C15.0652 10.9413 14.8629 11.6363 14.5112 12.2318L16.5872 14.3078C17.9342 13.2597 18.9749 11.8379 19.5538 10.2C18.3181 6.7034 14.983 4.19995 11.0656 4.19995C9.72067 4.19995 8.4462 4.49439 7.30163 5.02218ZM12.9976 10.7182C13.0417 10.553 13.0652 10.3793 13.0652 10.2C13.0652 9.09538 12.1698 8.19995 11.0652 8.19995C10.8858 8.19995 10.7122 8.22342 10.547 8.26753L12.9976 10.7182ZM3.69007 6.37373C4.13046 6.70701 4.2173 7.33419 3.88402 7.77458C3.33143 8.50479 2.88801 9.32129 2.57746 10.1999C3.81318 13.6965 7.14829 16.2 11.0656 16.2C11.6435 16.2 12.2077 16.1456 12.7537 16.0421C13.2964 15.9392 13.8196 16.2956 13.9225 16.8383C14.0254 17.3809 13.669 17.9042 13.1264 18.0071C12.4581 18.1338 11.7691 18.2 11.0656 18.2C6.13872 18.2 1.97078 14.9615 0.569387 10.4996C0.50812 10.3045 0.508121 10.0953 0.569389 9.90026C0.951301 8.68432 1.53829 7.55997 2.28922 6.56768C2.62249 6.12729 3.24967 6.04046 3.69007 6.37373Z" fill="#787878"/>
</svg>
