<svg width="513" height="52" viewBox="0 0 513 52" fill="none" xmlns="http://www.w3.org/2000/svg">
<path d="M0 46.47L21.28 2.85999H35.91L57.19 46.47H41.19L38.53 40.24H18.62L15.96 46.47H0ZM31.92 26.22L28.59 18.43L25.27 26.22H31.92Z" fill="url(#paint0_linear_1487_110747)"/>
<path d="M83.59 10.6599H95.13V33.9999C95.13 41.3733 90.9333 45.0599 82.54 45.0599H72.06C63.6733 45.0533 59.48 41.3666 59.48 33.9999V10.6599H71.01V32.77C71.01 33.58 71.36 33.9899 72.06 33.9899H82.54C83.24 33.9899 83.59 33.58 83.59 32.77V10.6599Z" fill="black"/>
<path d="M119.25 21.71V45.0499H108.76V21.71H97.2202V10.6599H130.78V21.71H119.25Z" fill="black"/>
<path d="M145.48 10.6599H155.97C164.357 10.6599 168.55 14.3433 168.55 21.71V33.9999C168.55 41.3733 164.357 45.0599 155.97 45.0599H145.48C137.087 45.0599 132.893 41.3733 132.9 33.9999V21.71C132.887 14.3433 137.08 10.6599 145.48 10.6599ZM155.97 21.71H145.48C144.78 21.71 144.43 22.1199 144.43 22.9399V32.77C144.43 33.58 144.78 33.9899 145.48 33.9899H155.97C156.67 33.9899 156.97 33.58 156.97 32.77V22.9399C156.99 22.1199 156.65 21.71 155.95 21.71H155.97Z" fill="black"/>
<path d="M193.7 10.6599C202.08 10.6599 206.273 14.3433 206.28 21.71V22.9399H194.74C194.74 22.1199 194.39 21.71 193.74 21.71H183.21C182.51 21.71 182.16 22.1199 182.16 22.9399C182.16 23.7599 182.51 24.1699 183.21 24.1699H193.7C202.08 24.1699 206.273 26.6266 206.28 31.5399V33.9999C206.28 41.3733 202.087 45.0599 193.7 45.0599H183.21C174.817 45.0599 170.623 41.3733 170.63 33.9999V32.78H182.16C182.16 33.59 182.51 33.9999 183.21 33.9999H193.7C194.39 33.9999 194.7 33.59 194.7 32.78C194.7 31.97 194.35 31.5499 193.7 31.5499H183.21C174.817 31.5499 170.623 29.0933 170.63 24.1799V21.7199C170.63 14.3466 174.823 10.6633 183.21 10.6699L193.7 10.6599Z" fill="black"/>
<path d="M311.64 20.25V43.62H298.34V0H315.63L327.63 21.81L339.63 0H356.92V43.62H343.62V20.25L331.62 43.62H323.62L311.64 20.25Z" fill="url(#paint1_linear_1487_110747)"/>
<path d="M376.69 10.1799H387.32C395.82 10.1799 400.073 13.9166 400.08 21.39V33.84C400.08 41.3066 395.827 45.0433 387.32 45.0499H376.69C368.184 45.0499 363.93 41.3133 363.93 33.84V21.39C363.93 13.9166 368.184 10.1799 376.69 10.1799ZM387.32 21.39H376.69C375.98 21.39 375.62 21.7999 375.62 22.6299V32.6299C375.62 33.4599 375.98 33.8699 376.69 33.8699H387.32C388.03 33.8699 388.38 33.4599 388.38 32.6299V22.6299C388.38 21.7999 388.03 21.39 387.32 21.39Z" fill="black"/>
<path d="M424.53 21.39V45.0499H413.9V21.39H402.2V10.1799H436.2V21.39H424.53Z" fill="black"/>
<path d="M451.11 10.1799H461.74C470.24 10.1799 474.49 13.9166 474.49 21.39V33.84C474.49 41.3066 470.24 45.0433 461.74 45.0499H451.11C442.603 45.0499 438.35 41.3133 438.35 33.84V21.39C438.35 13.9166 442.603 10.1799 451.11 10.1799ZM461.74 21.39H451.11C450.4 21.39 450.04 21.7999 450.04 22.6299V32.6299C450.04 33.4599 450.4 33.8699 451.11 33.8699H461.74C462.45 33.8699 462.8 33.4599 462.8 32.6299V22.6299C462.8 21.7999 462.48 21.39 461.74 21.39Z" fill="black"/>
<path d="M500.01 10.1799C508.51 10.1799 512.763 13.9166 512.77 21.39V22.6299H501.07C501.07 21.7999 500.72 21.39 500.01 21.39H489.38C488.67 21.39 488.31 21.7999 488.31 22.6299C488.31 23.4599 488.67 23.8799 489.38 23.8799H500.01C508.51 23.8799 512.763 26.3699 512.77 31.3499V33.84C512.77 41.3066 508.517 45.0433 500.01 45.0499H489.38C480.873 45.0499 476.62 41.3133 476.62 33.84V32.5999H488.31C488.31 33.4299 488.67 33.84 489.38 33.84H500.01C500.72 33.84 501.07 33.4299 501.07 32.5999C501.07 31.7699 500.72 31.3499 500.01 31.3499H489.38C480.873 31.3499 476.62 28.8599 476.62 23.8799V21.39C476.62 13.9166 480.873 10.1799 489.38 10.1799H500.01Z" fill="black"/>
<path d="M279.19 37.0901V36.81C279.183 36.7871 279.183 36.7629 279.19 36.74C279.46 36.48 279.7 36.2001 279.92 35.9601C280.067 35.8269 280.172 35.6528 280.22 35.4601C280.22 35.3805 280.188 35.3042 280.132 35.2479C280.076 35.1916 279.999 35.16 279.92 35.16C279.84 35.16 279.764 35.1916 279.708 35.2479C279.651 35.3042 279.62 35.3805 279.62 35.4601V35.5201V35.5801H279.26C279.252 35.582 279.243 35.5817 279.235 35.5794C279.227 35.5771 279.219 35.5727 279.213 35.5667C279.207 35.5607 279.203 35.5532 279.2 35.5451C279.198 35.5369 279.198 35.5283 279.2 35.5201V35.3901C279.241 35.2114 279.342 35.0525 279.488 34.9405C279.633 34.8286 279.812 34.7706 279.995 34.7765C280.179 34.7824 280.354 34.8519 280.492 34.9729C280.629 35.094 280.721 35.2591 280.75 35.44C280.727 35.666 280.629 35.8776 280.47 36.04C280.3 36.25 280.08 36.4701 279.85 36.7101H280.72H280.78V37C280.782 37.0083 280.782 37.0169 280.779 37.0251C280.777 37.0332 280.772 37.0407 280.766 37.0467C280.76 37.0527 280.753 37.0571 280.745 37.0594C280.737 37.0618 280.728 37.062 280.72 37.06H279.26C279.258 37.067 279.254 37.0733 279.249 37.0787C279.244 37.0841 279.238 37.0884 279.232 37.0912C279.225 37.0941 279.218 37.0955 279.211 37.0953C279.203 37.0951 279.196 37.0933 279.19 37.0901V37.0901Z" fill="#ED1C24"/>
<path d="M281.06 36.4199V35.5499C281.054 35.4459 281.07 35.3417 281.108 35.2446C281.146 35.1475 281.204 35.0598 281.28 34.9875C281.355 34.9153 281.445 34.8602 281.543 34.826C281.642 34.7919 281.746 34.7796 281.85 34.7899C281.954 34.7798 282.059 34.7922 282.158 34.8262C282.257 34.8603 282.348 34.9152 282.424 34.9872C282.5 35.0593 282.559 35.1469 282.598 35.244C282.637 35.341 282.655 35.4454 282.65 35.5499V36.4199C282.656 36.5253 282.64 36.6308 282.601 36.7291C282.563 36.8274 282.504 36.9162 282.428 36.9894C282.352 37.0626 282.261 37.1184 282.161 37.153C282.061 37.1876 281.955 37.2002 281.85 37.1899C281.745 37.2005 281.64 37.1879 281.541 37.1533C281.441 37.1186 281.351 37.0625 281.276 36.9891C281.2 36.9157 281.142 36.8268 281.105 36.7285C281.067 36.6301 281.052 36.5248 281.06 36.4199V36.4199ZM282.18 36.4199V35.4999C282.188 35.4525 282.186 35.4038 282.174 35.3572C282.161 35.3107 282.139 35.2675 282.108 35.2306C282.077 35.1937 282.038 35.164 281.995 35.1436C281.951 35.1233 281.903 35.1127 281.855 35.1127C281.807 35.1127 281.759 35.1233 281.716 35.1436C281.672 35.164 281.633 35.1937 281.602 35.2306C281.571 35.2675 281.549 35.3107 281.536 35.3572C281.524 35.4038 281.522 35.4525 281.53 35.4999V36.4199C281.522 36.4674 281.524 36.5161 281.536 36.5626C281.549 36.6092 281.571 36.6524 281.602 36.6893C281.633 36.7262 281.672 36.7559 281.716 36.7762C281.759 36.7966 281.807 36.8072 281.855 36.8072C281.903 36.8072 281.951 36.7966 281.995 36.7762C282.038 36.7559 282.077 36.7262 282.108 36.6893C282.139 36.6524 282.161 36.6092 282.174 36.5626C282.186 36.5161 282.188 36.4674 282.18 36.4199V36.4199Z" fill="#ED1C24"/>
<path d="M282.96 36.4199V35.5499C282.954 35.4459 282.97 35.3417 283.008 35.2446C283.046 35.1475 283.104 35.0598 283.18 34.9875C283.255 34.9153 283.345 34.8602 283.443 34.826C283.542 34.7919 283.646 34.7796 283.75 34.7899C283.854 34.7798 283.959 34.7922 284.058 34.8262C284.157 34.8603 284.248 34.9152 284.324 34.9872C284.399 35.0593 284.459 35.1469 284.498 35.244C284.537 35.341 284.555 35.4454 284.55 35.5499V36.4199C284.556 36.5253 284.54 36.6308 284.501 36.7291C284.463 36.8274 284.404 36.9162 284.328 36.9894C284.252 37.0626 284.16 37.1184 284.061 37.153C283.961 37.1876 283.855 37.2002 283.75 37.1899C283.645 37.2005 283.54 37.1879 283.44 37.1533C283.341 37.1186 283.251 37.0625 283.175 36.9891C283.1 36.9157 283.042 36.8268 283.005 36.7285C282.967 36.6301 282.952 36.5248 282.96 36.4199V36.4199ZM284.08 36.4199V35.4999C284.083 35.4558 284.076 35.4116 284.061 35.3702C284.045 35.3289 284.021 35.2913 283.99 35.2601C283.959 35.2288 283.921 35.2046 283.88 35.189C283.838 35.1735 283.794 35.167 283.75 35.1699C283.706 35.1668 283.662 35.1732 283.622 35.1888C283.581 35.2045 283.544 35.2289 283.513 35.2603C283.483 35.2918 283.459 35.3295 283.445 35.3709C283.431 35.4123 283.426 35.4564 283.43 35.4999V36.4199C283.426 36.4635 283.431 36.5076 283.445 36.5489C283.459 36.5903 283.483 36.6281 283.513 36.6595C283.544 36.691 283.581 36.7154 283.622 36.731C283.662 36.7466 283.706 36.7531 283.75 36.7499C283.792 36.7526 283.833 36.747 283.872 36.7332C283.912 36.7195 283.948 36.698 283.979 36.67C284.009 36.642 284.034 36.6081 284.052 36.5702C284.069 36.5324 284.079 36.4915 284.08 36.4499V36.4199Z" fill="#ED1C24"/>
<path d="M221.31 36.22V35.34C221.332 35.1445 221.425 34.964 221.572 34.8329C221.719 34.7018 221.908 34.6293 222.105 34.6293C222.302 34.6293 222.492 34.7018 222.638 34.8329C222.785 34.964 222.878 35.1445 222.9 35.34V36.22C222.878 36.4155 222.785 36.596 222.638 36.7271C222.492 36.8582 222.302 36.9307 222.105 36.9307C221.908 36.9307 221.719 36.8582 221.572 36.7271C221.425 36.596 221.332 36.4155 221.31 36.22V36.22ZM222.43 36.22V35.31C222.434 35.266 222.429 35.2215 222.415 35.1797C222.401 35.1378 222.378 35.0995 222.347 35.0673C222.317 35.0351 222.28 35.0098 222.239 34.993C222.198 34.9762 222.154 34.9683 222.11 34.97C222.065 34.9668 222.02 34.9736 221.978 34.9897C221.936 35.0059 221.898 35.031 221.866 35.0634C221.835 35.0957 221.811 35.1346 221.796 35.1772C221.781 35.2198 221.776 35.2651 221.78 35.31V36.22C221.776 36.2649 221.781 36.3102 221.796 36.3528C221.811 36.3954 221.835 36.4343 221.866 36.4667C221.898 36.4991 221.936 36.5242 221.978 36.5403C222.02 36.5564 222.065 36.5631 222.11 36.56C222.156 36.5692 222.204 36.5677 222.25 36.5557C222.295 36.5436 222.338 36.5213 222.373 36.4904C222.409 36.4596 222.437 36.421 222.456 36.3776C222.474 36.3342 222.482 36.2871 222.48 36.24L222.43 36.22Z" fill="#5E5E5E"/>
<path d="M252.78 49.09C252.499 49.0883 252.219 49.0716 251.94 49.04C251.541 48.9865 251.147 48.9029 250.76 48.79C250.021 48.5687 249.323 48.2311 248.69 47.79C247.745 47.1204 246.981 46.2267 246.466 45.1892C245.952 44.1516 245.703 43.0026 245.741 41.845C245.78 40.6875 246.105 39.5576 246.688 38.5567C247.271 37.5558 248.092 36.7151 249.08 36.11C249.913 35.595 250.842 35.2548 251.81 35.11C253.172 34.9109 254.563 35.1178 255.808 35.7047C257.053 36.2917 258.097 37.2326 258.81 38.41C259.659 39.7841 260.012 41.4075 259.81 43.01C259.611 44.5475 258.908 45.9755 257.81 47.07C257.262 47.6155 256.627 48.0651 255.93 48.4C255.608 48.5578 255.274 48.6882 254.93 48.79C254.54 48.903 254.142 48.9865 253.74 49.04C253.421 49.0771 253.101 49.0939 252.78 49.09V49.09ZM252.78 49.09C253.1 49.09 253.42 49.09 253.78 49.01C254.202 48.9526 254.617 48.8555 255.02 48.72C255.809 48.4584 256.541 48.0515 257.18 47.52C258.143 46.722 258.87 45.6763 259.282 44.4956C259.695 43.3149 259.777 42.044 259.52 40.82C259.328 39.9869 258.989 39.1945 258.52 38.48C257.782 37.3679 256.741 36.4901 255.52 35.95C254.091 35.3524 252.502 35.2537 251.01 35.67C249.767 36.0128 248.648 36.7073 247.79 37.67C246.666 38.9056 246.033 40.5098 246.01 42.18C246.006 43.8331 246.587 45.4343 247.65 46.7C248.184 47.328 248.828 47.8533 249.55 48.25C250.298 48.6479 251.111 48.9119 251.95 49.03C252.18 49.07 252.48 49.07 252.78 49.09Z" fill="url(#paint2_linear_1487_110747)"/>
<path d="M252.79 46.67C255.292 46.67 257.32 44.6418 257.32 42.14C257.32 39.6381 255.292 37.61 252.79 37.61C250.288 37.61 248.26 39.6381 248.26 42.14C248.26 44.6418 250.288 46.67 252.79 46.67Z" fill="url(#paint3_radial_1487_110747)"/>
<path d="M250.74 16.78C250.771 16.7292 250.808 16.6822 250.85 16.64L251.22 16.2H251.48L250.99 16.72L251.55 17.47H251.27L250.83 16.86L250.71 16.99V17.47H250.48V15.6H250.71L250.74 16.78Z" fill="#666666"/>
<path d="M251.79 16.5401C251.79 16.4101 251.79 16.3001 251.79 16.2001H251.99V16.4001C252.029 16.3285 252.087 16.269 252.157 16.2284C252.228 16.1878 252.309 16.1676 252.39 16.1701C252.468 16.1695 252.545 16.1932 252.61 16.2379C252.674 16.2827 252.723 16.3463 252.75 16.4201V16.4201C252.786 16.3554 252.838 16.3006 252.9 16.2601C252.979 16.1965 253.079 16.1644 253.18 16.1701C253.34 16.1701 253.59 16.2801 253.59 16.7201V17.4701H253.37V16.7501C253.37 16.5001 253.28 16.3601 253.09 16.3601C253.029 16.3619 252.969 16.3833 252.921 16.421C252.872 16.4588 252.837 16.511 252.82 16.5701C252.814 16.6065 252.814 16.6436 252.82 16.6801V17.4701H252.6V16.7101C252.6 16.5001 252.51 16.3601 252.33 16.3601C252.264 16.3636 252.2 16.3877 252.148 16.4289C252.096 16.4701 252.059 16.5265 252.04 16.5901C252.035 16.6266 252.035 16.6636 252.04 16.7001V17.4701H251.81L251.79 16.5401Z" fill="#666666"/>
<path d="M253.78 17.5699L254.52 15.6699H254.7L253.96 17.5699H253.78Z" fill="#666666"/>
<path d="M254.88 15.6H255.11V16.4C255.143 16.3276 255.2 16.2679 255.27 16.23C255.343 16.1894 255.426 16.1687 255.51 16.17C255.68 16.17 255.95 16.27 255.95 16.71V17.47H255.72V16.74C255.72 16.53 255.64 16.36 255.43 16.36C255.36 16.3594 255.292 16.3815 255.236 16.423C255.18 16.4645 255.139 16.5232 255.12 16.59C255.11 16.626 255.11 16.6641 255.12 16.7V17.47H254.89L254.88 15.6Z" fill="#666666"/>
<path opacity="0.9" d="M214.6 33.74L220.07 35.0201L220.01 35.33L214.48 34.2801L214.6 33.74ZM215.97 28.99L220.66 30.63V30.5201L216 28.8L215.97 28.99ZM217.97 24.2701L222.97 26.7701L223.12 26.49L218.2 23.7801L217.97 24.2701ZM220.82 19.58L224.9 22.42L224.96 22.32L220.96 19.4001L220.82 19.58ZM224.05 15.58L228.23 19.33L228.45 19.11L224.45 15.17L224.05 15.58ZM232.25 8.84006L235.25 13.58L235.51 13.42L232.71 8.55002L232.25 8.84006ZM252.59 8.66H252.9L253.02 3.04004H252.48L252.59 8.66ZM247.33 3.42004L248.05 8.34006H248.17L247.54 3.41003L247.33 3.42004ZM237.12 6.30002L239.12 10.8401H239.23L237.29 6.26004L237.12 6.30002ZM228.06 11.82L231.22 15.66L231.32 15.58L228.22 11.69L228.06 11.82ZM251.58 3.06003L251.74 7.20004H251.85L251.77 3.05002L251.58 3.06003ZM250.52 3.06003L250.79 7.20004H250.89L250.71 3.05002L250.52 3.06003ZM249.46 3.14005L249.84 7.27005H249.94L249.65 3.13004L249.46 3.14005ZM248.4 3.24002L248.89 7.36002H249L248.59 3.23004L248.4 3.24002ZM246.29 3.54004L247.01 7.62003H247.11L246.48 3.53003L246.29 3.54004ZM245.24 3.73004L246.07 7.79001H246.18L245.43 3.71002L245.24 3.73004ZM244.24 3.95004L245.18 7.95004H245.28L244.43 3.89005L244.24 3.95004ZM243.24 4.19003L244.24 8.19003H244.35L243.35 4.19003H243.24ZM241.19 4.77002L242.45 8.72H242.55L241.37 4.72003L241.19 4.77002ZM240.19 5.10004L241.56 9.01004H241.67L240.38 5.07004L240.19 5.10004ZM239.19 5.46002L240.67 9.33005H240.77L239.37 5.42004L239.19 5.46002ZM238.19 5.84003L239.77 9.68002H239.87L238.37 5.81003L238.19 5.84003ZM236.24 6.69003L238.03 10.43H238.12L236.41 6.65002L236.24 6.69003ZM235.24 7.16L237.13 10.85H237.23L235.41 7.12003L235.24 7.16ZM234.3 7.65005L236.3 11.29L236.4 11.24L234.48 7.60001L234.3 7.65005ZM235.55 11.6501L233.55 8.03006L233.39 8.13004L235.47 11.7101L235.55 11.6501ZM231.55 9.23001L233.83 12.7L233.92 12.64L231.71 9.13004L231.55 9.23001ZM230.66 9.82004L233.03 13.22L233.12 13.16L230.82 9.71005L230.66 9.82004ZM229.79 10.44L232.26 13.7701L232.34 13.7101L229.95 10.32L229.79 10.44ZM228.94 11.07L231.49 14.3401L231.58 14.2701L229.09 11L228.94 11.07ZM227.29 12.42L230.02 15.54L230.1 15.47L227.48 12.37L227.29 12.42ZM226.49 13.12L229.3 16.12L229.38 16.05L226.63 12.94L226.49 13.12ZM225.71 13.85L228.61 16.85L228.69 16.7701L225.85 13.7701L225.71 13.85ZM228.01 17.41L225.09 14.41L224.96 14.55L227.96 17.44L228.01 17.41ZM223.48 16.23L226.61 18.9601L226.68 18.87L223.61 16.0901L223.48 16.23ZM222.79 17.04L225.99 19.68L226.06 19.5901L222.91 16.89L222.79 17.04ZM222.12 17.86L225.39 20.41L225.45 20.33L222.24 17.7101L222.12 17.86ZM224.87 21.08L221.58 18.55L221.47 18.7101L224.81 21.17L224.87 21.08ZM220.24 20.45L223.71 22.72L223.77 22.63L220.35 20.29L220.24 20.45ZM219.66 21.3401L223.19 23.5201L223.25 23.43L219.76 21.18L219.66 21.3401ZM222.75 24.24L219.2 22.08L219.11 22.25L222.69 24.33L222.75 24.24ZM222.27 25.06L218.67 23L218.58 23.17L222.22 25.17L222.27 25.06ZM217.6 25.06L221.34 26.8401L221.39 26.75L217.68 24.89L217.6 25.06ZM217.14 26.06L220.93 27.73V27.64L217.17 25.88L217.14 26.06ZM220.6 28.51L216.79 26.85L216.72 27.0301L220.55 28.61L220.6 28.51ZM220.24 29.39L216.39 27.8401L216.32 28.0201L220.2 29.49L220.24 29.39ZM219.59 31.18L215.66 29.8401L215.6 30.0201L219.55 31.2801L219.59 31.18ZM219.3 32.08L215.3 30.85L215.25 31.04L219.25 32.19L219.3 32.08ZM219.04 33L215.04 31.88V32.06L219.04 33.06V33ZM218.8 33.92L214.8 32.92V33.1L218.8 34.04V33.92ZM241.98 4.59003L243.61 9.96005L243.91 9.88004L242.52 4.44003L241.98 4.59003ZM257.34 8.35001H257.45L258.17 3.43002H257.97L257.34 8.35001ZM253.66 7.23001H253.77L253.92 3.09003H253.73L253.66 7.23001ZM254.61 7.23001H254.72L254.99 3.09003H254.8L254.61 7.23001ZM255.61 7.29001H255.72L256.1 3.16003H255.91L255.61 7.29001ZM256.56 7.38004H256.67L257.16 3.26004H256.97L256.56 7.38004ZM258.44 7.63004H258.55L259.27 3.55002H259.08L258.44 7.63004ZM260.13 3.72003L259.38 7.80002H259.49L260.31 3.74002L260.13 3.72003ZM261.13 3.93002L260.28 8.00003H260.39L261.33 4.00003L261.13 3.93002ZM262.13 4.18002L261.13 8.18002H261.24L262.24 4.18002H262.13ZM262.99 4.40002L261.6 9.84006L261.9 9.92001L263.53 4.55002L262.99 4.40002Z" fill="url(#paint4_radial_1487_110747)"/>
<path d="M277.6 27H277.98C277.98 27 277.98 27 277.98 27.06V29.27V29.33H277.62C277.62 29.33 277.62 29.33 277.62 29.27V27.46L277.33 27.52C277.33 27.52 277.27 27.52 277.27 27.47V27.22C277.264 27.2093 277.261 27.1973 277.261 27.185C277.261 27.1727 277.264 27.1607 277.27 27.15L277.57 27.03L277.6 27Z" fill="#ED1C24"/>
<path d="M280.17 28.5901V27.7101C280.163 27.606 280.18 27.5018 280.218 27.4047C280.256 27.3076 280.314 27.2199 280.389 27.1476C280.464 27.0754 280.554 27.0203 280.653 26.9862C280.751 26.952 280.856 26.9398 280.96 26.9501C281.064 26.9399 281.169 26.9523 281.268 26.9863C281.367 27.0204 281.457 27.0753 281.533 27.1474C281.609 27.2195 281.669 27.307 281.708 27.4041C281.747 27.5012 281.765 27.6055 281.76 27.7101V28.5901C281.765 28.6946 281.747 28.799 281.708 28.8961C281.669 28.9931 281.609 29.0807 281.533 29.1528C281.457 29.2249 281.367 29.2797 281.268 29.3138C281.169 29.3478 281.064 29.3602 280.96 29.35C280.856 29.3604 280.751 29.3481 280.653 29.314C280.554 29.2799 280.464 29.2247 280.389 29.1525C280.314 29.0802 280.256 28.9925 280.218 28.8954C280.18 28.7983 280.163 28.6941 280.17 28.5901V28.5901ZM281.29 28.5901V27.67C281.298 27.6226 281.296 27.5739 281.283 27.5273C281.271 27.4808 281.249 27.4376 281.218 27.4007C281.187 27.3638 281.148 27.3341 281.104 27.3137C281.061 27.2934 281.013 27.2828 280.965 27.2828C280.917 27.2828 280.869 27.2934 280.825 27.3137C280.782 27.3341 280.743 27.3638 280.712 27.4007C280.681 27.4376 280.659 27.4808 280.646 27.5273C280.634 27.5739 280.631 27.6226 280.64 27.67V28.5901C280.631 28.6375 280.634 28.6862 280.646 28.7327C280.659 28.7793 280.681 28.8225 280.712 28.8594C280.743 28.8963 280.782 28.926 280.825 28.9464C280.869 28.9667 280.917 28.9773 280.965 28.9773C281.013 28.9773 281.061 28.9667 281.104 28.9464C281.148 28.926 281.187 28.8963 281.218 28.8594C281.249 28.8225 281.271 28.7793 281.283 28.7327C281.296 28.6862 281.298 28.6375 281.29 28.5901V28.5901Z" fill="#ED1C24"/>
<path d="M272.91 20.15H273.29C273.298 20.1481 273.307 20.1483 273.315 20.1506C273.323 20.1529 273.331 20.1573 273.337 20.1633C273.343 20.1693 273.347 20.1767 273.349 20.1849C273.352 20.1931 273.352 20.2017 273.35 20.21V22.43C273.35 22.43 273.35 22.4799 273.29 22.4799H272.93L272.88 22.43V20.6099L272.59 20.6699H272.53V20.4199C272.524 20.4113 272.52 20.4008 272.52 20.39C272.52 20.3792 272.524 20.3686 272.53 20.3599L272.83 20.24L272.91 20.15Z" fill="#ED1C24"/>
<path d="M275.21 21.74C275.21 21.8569 275.186 21.9726 275.14 22.08C275.077 22.2135 274.977 22.3263 274.852 22.4053C274.727 22.4843 274.583 22.5262 274.435 22.5262C274.287 22.5262 274.143 22.4843 274.018 22.4053C273.893 22.3263 273.793 22.2135 273.73 22.08C273.689 21.9749 273.669 21.8628 273.67 21.75V20.75C273.67 20.39 273.98 20.15 274.42 20.15C274.86 20.15 275.15 20.39 275.15 20.74V20.82C275.15 20.82 275.15 20.87 275.09 20.87H274.74H274.68C274.68 20.8363 274.673 20.803 274.66 20.772C274.647 20.741 274.628 20.7129 274.603 20.6896C274.579 20.6662 274.55 20.6481 274.519 20.6361C274.487 20.6241 274.454 20.6186 274.42 20.62C274.384 20.6172 274.348 20.6219 274.314 20.6337C274.28 20.6456 274.249 20.6643 274.223 20.6887C274.197 20.7131 274.176 20.7427 274.162 20.7756C274.147 20.8086 274.14 20.8441 274.14 20.88V21.19C274.225 21.0858 274.347 21.0179 274.48 21C274.604 20.9949 274.728 21.025 274.836 21.087C274.943 21.1489 275.032 21.2401 275.09 21.35C275.158 21.4695 275.199 21.6027 275.21 21.74V21.74ZM274.74 21.74C274.74 21.6626 274.719 21.5866 274.68 21.52C274.655 21.479 274.62 21.4453 274.578 21.4224C274.535 21.3996 274.488 21.3884 274.44 21.39C274.389 21.3863 274.338 21.3975 274.294 21.4224C274.25 21.4473 274.213 21.4848 274.19 21.53C274.16 21.596 274.145 21.6676 274.145 21.74C274.145 21.8124 274.16 21.884 274.19 21.95C274.213 21.9988 274.25 22.0394 274.296 22.0663C274.343 22.0931 274.396 22.1049 274.45 22.1C274.502 22.1015 274.553 22.0882 274.597 22.0616C274.641 22.0351 274.677 21.9963 274.7 21.95C274.731 21.8845 274.745 21.8122 274.74 21.74V21.74Z" fill="#ED1C24"/>
<path d="M275.48 21.76V20.88C275.475 20.7768 275.492 20.6737 275.531 20.5779C275.57 20.482 275.628 20.3955 275.703 20.3244C275.778 20.2532 275.868 20.199 275.965 20.1655C276.063 20.132 276.167 20.1199 276.27 20.13C276.373 20.1183 276.478 20.1293 276.577 20.1621C276.676 20.1949 276.767 20.2489 276.843 20.3202C276.919 20.3916 276.979 20.4786 277.018 20.5752C277.057 20.6719 277.075 20.7759 277.07 20.88V21.76C277.075 21.8646 277.057 21.9689 277.018 22.066C276.979 22.1631 276.919 22.2507 276.843 22.3227C276.767 22.3948 276.677 22.4497 276.578 22.4837C276.479 22.5178 276.374 22.5302 276.27 22.5201C276.166 22.5304 276.061 22.518 275.963 22.4839C275.864 22.4498 275.774 22.3947 275.699 22.3224C275.624 22.2502 275.566 22.1625 275.528 22.0653C275.49 21.9682 275.474 21.8641 275.48 21.76V21.76ZM276.6 21.76V20.8401C276.608 20.7926 276.606 20.7439 276.594 20.6974C276.581 20.6508 276.559 20.6076 276.528 20.5707C276.497 20.5338 276.458 20.5041 276.414 20.4837C276.371 20.4634 276.323 20.4528 276.275 20.4528C276.227 20.4528 276.179 20.4634 276.135 20.4837C276.092 20.5041 276.053 20.5338 276.022 20.5707C275.991 20.6076 275.969 20.6508 275.956 20.6974C275.944 20.7439 275.941 20.7926 275.95 20.8401V21.76C275.941 21.8075 275.944 21.8562 275.956 21.9027C275.969 21.9493 275.991 21.9925 276.022 22.0294C276.053 22.0663 276.092 22.096 276.135 22.1164C276.179 22.1367 276.227 22.1473 276.275 22.1473C276.323 22.1473 276.371 22.1367 276.414 22.1164C276.458 22.096 276.497 22.0663 276.528 22.0294C276.559 21.9925 276.581 21.9493 276.594 21.9027C276.606 21.8562 276.608 21.8075 276.6 21.76V21.76Z" fill="#ED1C24"/>
<path d="M266.75 15H267.12H267.18V17.22C267.182 17.2282 267.182 17.2369 267.179 17.2451C267.177 17.2532 267.173 17.2607 267.167 17.2667C267.161 17.2727 267.153 17.277 267.145 17.2794C267.137 17.2817 267.128 17.2819 267.12 17.28H266.77C266.762 17.2819 266.753 17.2817 266.745 17.2794C266.737 17.277 266.729 17.2727 266.723 17.2667C266.717 17.2607 266.713 17.2532 266.711 17.2451C266.708 17.2369 266.708 17.2282 266.71 17.22V15.4L266.41 15.46H266.35V15.21C266.343 15.2014 266.34 15.1908 266.34 15.18C266.34 15.1692 266.343 15.1587 266.35 15.15L266.66 15.03L266.75 15Z" fill="#ED1C24"/>
<path d="M269.22 16.38V16.68C269.222 16.6883 269.222 16.6969 269.219 16.7051C269.217 16.7132 269.213 16.7206 269.206 16.7266C269.2 16.7326 269.193 16.737 269.185 16.7394C269.177 16.7417 269.168 16.7419 269.16 16.74H269.04V17.26V17.32H268.68C268.672 17.3219 268.663 17.3217 268.655 17.3193C268.647 17.317 268.639 17.3126 268.633 17.3066C268.627 17.3006 268.623 17.2932 268.621 17.285C268.618 17.2769 268.618 17.2683 268.62 17.26V16.74H267.62C267.612 16.7419 267.603 16.7417 267.595 16.7394C267.587 16.737 267.579 16.7326 267.573 16.7266C267.567 16.7206 267.563 16.7132 267.561 16.7051C267.558 16.6969 267.558 16.6883 267.56 16.68V16.44C267.556 16.4169 267.556 16.3931 267.56 16.37L268.15 15.05C268.16 15.0438 268.173 15.0406 268.185 15.0406C268.197 15.0406 268.209 15.0438 268.22 15.05H268.48C268.53 15.05 268.54 15.05 268.53 15.11L267.98 16.34H268.47V15.95C268.468 15.9417 268.468 15.9331 268.471 15.9249C268.473 15.9168 268.477 15.9094 268.483 15.9034C268.489 15.8974 268.497 15.893 268.505 15.8906C268.513 15.8883 268.522 15.8881 268.53 15.89H268.89C268.89 15.89 268.89 15.89 268.89 15.95V16.34H269.01C269.015 16.3122 269.031 16.2875 269.055 16.2716C269.078 16.2557 269.107 16.2497 269.135 16.255C269.163 16.2603 269.187 16.2764 269.203 16.2999C269.219 16.3233 269.225 16.3522 269.22 16.38V16.38Z" fill="#ED1C24"/>
<path d="M269.53 16.61V15.73C269.525 15.6268 269.543 15.5238 269.581 15.4279C269.62 15.332 269.679 15.2456 269.754 15.1744C269.829 15.1033 269.918 15.0491 270.016 15.0155C270.113 14.982 270.217 14.9699 270.32 14.98C270.424 14.9683 270.529 14.9793 270.628 15.0121C270.727 15.045 270.817 15.0989 270.893 15.1702C270.969 15.2415 271.029 15.3285 271.068 15.4252C271.107 15.5219 271.125 15.6258 271.12 15.73V16.61C271.125 16.7146 271.107 16.8189 271.068 16.916C271.029 17.0131 270.97 17.1006 270.894 17.1727C270.818 17.2448 270.727 17.2997 270.628 17.3338C270.529 17.3678 270.424 17.3802 270.32 17.37C270.216 17.3803 270.112 17.368 270.013 17.3339C269.915 17.2998 269.825 17.2447 269.75 17.1725C269.675 17.1002 269.616 17.0125 269.578 16.9154C269.54 16.8183 269.524 16.7141 269.53 16.61V16.61ZM270.65 16.61V15.7C270.658 15.6526 270.656 15.6039 270.644 15.5573C270.631 15.5108 270.609 15.4675 270.578 15.4306C270.547 15.3937 270.508 15.3641 270.465 15.3437C270.421 15.3234 270.373 15.3128 270.325 15.3128C270.277 15.3128 270.229 15.3234 270.186 15.3437C270.142 15.3641 270.103 15.3937 270.072 15.4306C270.041 15.4675 270.019 15.5108 270.006 15.5573C269.994 15.6039 269.992 15.6526 270 15.7V16.61C269.992 16.6575 269.994 16.7062 270.006 16.7527C270.019 16.7993 270.041 16.8425 270.072 16.8794C270.103 16.9163 270.142 16.946 270.186 16.9663C270.229 16.9867 270.277 16.9973 270.325 16.9973C270.373 16.9973 270.421 16.9867 270.465 16.9663C270.508 16.946 270.547 16.9163 270.578 16.8794C270.609 16.8425 270.631 16.7993 270.644 16.7527C270.656 16.7062 270.658 16.6575 270.65 16.61V16.61Z" fill="#ED1C24"/>
<path d="M259.37 11.3599H259.74C259.748 11.358 259.757 11.3583 259.765 11.3606C259.773 11.3629 259.781 11.3673 259.787 11.3733C259.793 11.3793 259.797 11.3867 259.799 11.3949C259.802 11.4031 259.802 11.4116 259.8 11.4199V13.6399C259.8 13.6399 259.8 13.6899 259.74 13.6899H259.39C259.39 13.6899 259.33 13.6899 259.33 13.6399V11.8199L259.03 11.8799L258.97 11.83V11.58C258.963 11.5713 258.96 11.5607 258.96 11.5499C258.96 11.5391 258.963 11.5286 258.97 11.52L259.28 11.4L259.37 11.3599Z" fill="#5E5E5E"/>
<path d="M260.13 13.64V13.36C260.126 13.3489 260.123 13.337 260.123 13.325C260.123 13.313 260.126 13.3011 260.13 13.29C260.4 13.02 260.63 12.74 260.86 12.5C261.006 12.3695 261.11 12.1992 261.16 12.01C261.16 11.9304 261.129 11.8541 261.072 11.7979C261.016 11.7416 260.94 11.71 260.86 11.71C260.781 11.71 260.704 11.7416 260.648 11.7979C260.592 11.8541 260.56 11.9304 260.56 12.01V12.08C260.562 12.0883 260.562 12.0969 260.56 12.105C260.557 12.1132 260.553 12.1206 260.547 12.1266C260.541 12.1326 260.533 12.137 260.525 12.1393C260.517 12.1417 260.508 12.1419 260.5 12.14H260.15C260.142 12.1419 260.133 12.1417 260.125 12.1393C260.117 12.137 260.11 12.1326 260.104 12.1266C260.098 12.1206 260.093 12.1132 260.091 12.105C260.088 12.0969 260.088 12.0883 260.09 12.08V11.94C260.1 11.8495 260.128 11.7619 260.172 11.6824C260.217 11.6029 260.276 11.5331 260.348 11.4771C260.42 11.4212 260.502 11.3802 260.59 11.3566C260.678 11.3331 260.77 11.3274 260.86 11.34C260.956 11.3274 261.053 11.3348 261.145 11.3619C261.237 11.389 261.323 11.4352 261.396 11.4973C261.47 11.5595 261.529 11.6363 261.571 11.7228C261.613 11.8094 261.637 11.9038 261.64 12C261.618 12.226 261.519 12.4376 261.36 12.6C261.19 12.81 260.97 13.02 260.74 13.27H261.61C261.618 13.2681 261.627 13.2683 261.635 13.2706C261.643 13.273 261.651 13.2773 261.657 13.2833C261.663 13.2893 261.667 13.2968 261.669 13.3049C261.672 13.3131 261.672 13.3217 261.67 13.33V13.62C261.67 13.62 261.67 13.67 261.61 13.67H260.15C260.15 13.67 260.13 13.67 260.13 13.64Z" fill="#5E5E5E"/>
<path d="M262 13V12.12C261.995 12.0168 262.012 11.9137 262.051 11.8178C262.09 11.722 262.148 11.6355 262.223 11.5644C262.298 11.4932 262.388 11.439 262.485 11.4055C262.583 11.372 262.687 11.3599 262.79 11.37C262.893 11.3583 262.998 11.3693 263.097 11.4021C263.196 11.435 263.287 11.4889 263.363 11.5602C263.439 11.6315 263.499 11.7186 263.538 11.8152C263.577 11.9119 263.595 12.0159 263.59 12.12V13C263.595 13.1046 263.577 13.2089 263.538 13.306C263.499 13.4031 263.439 13.4906 263.363 13.5627C263.288 13.6348 263.197 13.6897 263.098 13.7238C262.999 13.7578 262.894 13.7702 262.79 13.76C262.686 13.7704 262.581 13.758 262.483 13.7239C262.384 13.6898 262.294 13.6347 262.219 13.5625C262.144 13.4902 262.086 13.4024 262.048 13.3053C262.01 13.2082 261.994 13.1041 262 13V13ZM263.12 13V12.0901C263.124 12.0452 263.119 11.9998 263.104 11.9572C263.089 11.9146 263.065 11.8757 263.034 11.8434C263.002 11.811 262.964 11.7859 262.922 11.7697C262.88 11.7536 262.835 11.7469 262.79 11.75C262.746 11.7484 262.702 11.7563 262.661 11.773C262.62 11.7898 262.583 11.8152 262.553 11.8474C262.522 11.8796 262.499 11.9179 262.485 11.9597C262.471 12.0016 262.466 12.046 262.47 12.0901V13C262.466 13.044 262.471 13.0885 262.485 13.1303C262.499 13.1722 262.522 13.2105 262.553 13.2427C262.583 13.2749 262.62 13.3003 262.661 13.317C262.702 13.3338 262.746 13.3417 262.79 13.3401C262.835 13.3432 262.88 13.3364 262.922 13.3203C262.964 13.3042 263.002 13.279 263.034 13.2467C263.065 13.2143 263.089 13.1754 263.104 13.1328C263.119 13.0902 263.124 13.0449 263.12 13Z" fill="#5E5E5E"/>
<path d="M250.88 9.82007H251.25H251.31V12.04C251.312 12.0483 251.312 12.057 251.31 12.0651C251.307 12.0733 251.303 12.0807 251.297 12.0867C251.291 12.0927 251.283 12.0971 251.275 12.0994C251.267 12.1018 251.259 12.102 251.25 12.1H250.9C250.892 12.102 250.883 12.1018 250.875 12.0994C250.867 12.0971 250.86 12.0927 250.854 12.0867C250.848 12.0807 250.843 12.0733 250.841 12.0651C250.839 12.057 250.838 12.0483 250.84 12.04V10.23L250.55 10.29C250.55 10.29 250.48 10.2901 250.48 10.2401V10.0001C250.475 9.99094 250.472 9.98056 250.472 9.97003C250.472 9.9595 250.475 9.94918 250.48 9.94006L250.78 9.82007H250.88Z" fill="#5E5E5E"/>
<path d="M251.65 11.42V10.5399C251.645 10.4367 251.662 10.3337 251.701 10.2378C251.74 10.1419 251.798 10.0555 251.873 9.98434C251.948 9.91319 252.038 9.859 252.135 9.82547C252.233 9.79193 252.337 9.77979 252.44 9.78995C252.543 9.77824 252.648 9.78921 252.747 9.82205C252.846 9.85489 252.937 9.90881 253.013 9.98013C253.089 10.0515 253.149 10.1385 253.188 10.2351C253.227 10.3318 253.245 10.4358 253.24 10.5399V11.42C253.245 11.5245 253.227 11.6288 253.188 11.7259C253.149 11.823 253.089 11.9106 253.013 11.9826C252.937 12.0547 252.847 12.1097 252.748 12.1437C252.649 12.1777 252.544 12.1901 252.44 12.18C252.336 12.1903 252.231 12.178 252.133 12.1439C252.034 12.1098 251.944 12.0547 251.869 11.9824C251.794 11.9101 251.736 11.8224 251.698 11.7253C251.66 11.6282 251.643 11.524 251.65 11.42ZM252.77 11.42V10.51C252.774 10.4651 252.769 10.4198 252.754 10.3772C252.739 10.3346 252.715 10.2957 252.684 10.2633C252.652 10.231 252.614 10.2058 252.572 10.1897C252.53 10.1735 252.485 10.1668 252.44 10.17C252.396 10.1683 252.352 10.1762 252.311 10.193C252.27 10.2097 252.233 10.2351 252.203 10.2673C252.172 10.2995 252.149 10.3378 252.135 10.3797C252.121 10.4215 252.115 10.466 252.12 10.51V11.42C252.115 11.464 252.121 11.5084 252.135 11.5503C252.149 11.5921 252.172 11.6304 252.203 11.6626C252.233 11.6948 252.27 11.7202 252.311 11.737C252.352 11.7538 252.396 11.7616 252.44 11.76C252.483 11.7628 252.526 11.7565 252.567 11.7415C252.608 11.7266 252.645 11.7033 252.676 11.6732C252.707 11.643 252.731 11.6067 252.747 11.5666C252.764 11.5264 252.771 11.4833 252.77 11.44V11.42Z" fill="#5E5E5E"/>
<path d="M253.54 11.42V10.5399C253.535 10.4358 253.553 10.3318 253.592 10.2351C253.631 10.1385 253.691 10.0515 253.767 9.98013C253.843 9.90881 253.933 9.85489 254.032 9.82205C254.131 9.78921 254.236 9.77824 254.34 9.78995C254.443 9.77979 254.547 9.79193 254.644 9.82547C254.742 9.859 254.831 9.91319 254.906 9.98434C254.981 10.0555 255.04 10.1419 255.079 10.2378C255.117 10.3337 255.135 10.4367 255.13 10.5399V11.42C255.136 11.524 255.12 11.6282 255.082 11.7253C255.044 11.8224 254.985 11.9101 254.91 11.9824C254.835 12.0547 254.745 12.1098 254.647 12.1439C254.548 12.178 254.444 12.1903 254.34 12.18C254.236 12.1901 254.131 12.1777 254.032 12.1437C253.933 12.1097 253.842 12.0547 253.766 11.9826C253.69 11.9106 253.631 11.823 253.592 11.7259C253.553 11.6288 253.535 11.5245 253.54 11.42V11.42ZM254.66 11.42V10.51C254.664 10.466 254.659 10.4215 254.645 10.3797C254.63 10.3378 254.607 10.2995 254.577 10.2673C254.547 10.2351 254.51 10.2097 254.469 10.193C254.428 10.1762 254.384 10.1683 254.34 10.17C254.295 10.1668 254.25 10.1735 254.208 10.1897C254.165 10.2058 254.127 10.231 254.096 10.2633C254.064 10.2957 254.041 10.3346 254.026 10.3772C254.011 10.4198 254.005 10.4651 254.01 10.51V11.42C254.005 11.4648 254.011 11.5102 254.026 11.5528C254.041 11.5954 254.064 11.6342 254.096 11.6666C254.127 11.699 254.165 11.7241 254.208 11.7403C254.25 11.7564 254.295 11.7631 254.34 11.76C254.382 11.7614 254.425 11.754 254.464 11.7384C254.503 11.7228 254.539 11.6993 254.569 11.6693C254.599 11.6393 254.623 11.6035 254.638 11.5641C254.654 11.5246 254.661 11.4824 254.66 11.44V11.42Z" fill="#5E5E5E"/>
<path d="M244.48 12.69C244.485 12.8085 244.457 12.9259 244.4 13.03C244.328 13.1493 244.225 13.2467 244.101 13.3119C243.978 13.377 243.839 13.4075 243.7 13.4C243.561 13.4106 243.421 13.3802 243.299 13.3127C243.176 13.2453 243.076 13.1435 243.01 13.02C242.953 12.9196 242.926 12.8053 242.93 12.69C242.929 12.5697 242.953 12.4506 243 12.34C243.043 12.2658 243.101 12.2011 243.17 12.15C243.11 12.1032 243.059 12.0455 243.02 11.98C242.966 11.8895 242.938 11.7855 242.94 11.68C242.938 11.5514 242.976 11.4254 243.05 11.32C243.126 11.2211 243.225 11.1421 243.338 11.0898C243.451 11.0376 243.576 11.0136 243.7 11.02C243.838 11.0076 243.976 11.0349 244.098 11.0987C244.22 11.1626 244.322 11.2602 244.39 11.38C244.441 11.4718 244.469 11.5749 244.47 11.68C244.471 11.7854 244.444 11.8891 244.39 11.98C244.342 12.0414 244.289 12.0983 244.23 12.15C244.23 12.15 244.23 12.15 244.23 12.15C244.304 12.1996 244.363 12.2688 244.4 12.35C244.453 12.4554 244.481 12.5719 244.48 12.69V12.69ZM243.41 11.69C243.394 11.7456 243.394 11.8044 243.41 11.86C243.436 11.9026 243.473 11.9373 243.517 11.9602C243.561 11.9831 243.611 11.9934 243.66 11.99C243.711 11.9931 243.762 11.9827 243.808 11.9599C243.853 11.9371 243.892 11.9026 243.92 11.86C243.936 11.801 243.936 11.739 243.92 11.68C243.936 11.6313 243.936 11.5787 243.92 11.53C243.896 11.4804 243.857 11.4394 243.809 11.4126C243.76 11.3858 243.705 11.3744 243.65 11.38C243.598 11.3768 243.546 11.3882 243.5 11.413C243.454 11.4377 243.416 11.4748 243.39 11.52C243.371 11.5813 243.364 11.646 243.37 11.71L243.41 11.69ZM244.01 12.62C244.021 12.5638 244.021 12.5062 244.01 12.45C243.989 12.3967 243.951 12.3514 243.903 12.3209C243.854 12.2903 243.797 12.276 243.74 12.28C243.685 12.2781 243.63 12.2934 243.583 12.3238C243.537 12.3543 243.501 12.3983 243.48 12.45C243.469 12.5095 243.469 12.5705 243.48 12.63C243.478 12.7064 243.495 12.7821 243.53 12.85C243.555 12.891 243.59 12.9247 243.633 12.9476C243.675 12.9704 243.722 12.9816 243.77 12.98C243.817 12.9837 243.865 12.9745 243.907 12.9534C243.949 12.9322 243.985 12.8999 244.01 12.86C244.016 12.7844 244.003 12.7085 243.97 12.64L244.01 12.62Z" fill="#5E5E5E"/>
<path d="M244.72 12.6399V11.7599C244.714 11.6586 244.73 11.5572 244.766 11.4623C244.802 11.3675 244.858 11.2814 244.93 11.2096C245.001 11.1379 245.088 11.0821 245.182 11.0459C245.277 11.0098 245.379 10.9941 245.48 10.9999C245.584 10.9882 245.689 10.9991 245.787 11.032C245.886 11.0648 245.977 11.1188 246.053 11.1901C246.129 11.2614 246.189 11.3484 246.228 11.4451C246.267 11.5418 246.285 11.6458 246.28 11.7499V12.6299C246.286 12.7353 246.27 12.8408 246.231 12.9391C246.193 13.0374 246.133 13.1262 246.057 13.1994C245.981 13.2726 245.89 13.3284 245.791 13.363C245.691 13.3976 245.585 13.4103 245.48 13.3999C245.379 13.4057 245.277 13.3901 245.182 13.3539C245.088 13.3178 245.001 13.262 244.93 13.1902C244.858 13.1185 244.802 13.0323 244.766 12.9375C244.73 12.8426 244.714 12.7413 244.72 12.6399V12.6399ZM245.84 12.6399V11.7199C245.844 11.675 245.839 11.6297 245.824 11.5871C245.809 11.5445 245.785 11.5056 245.754 11.4732C245.723 11.4409 245.684 11.4158 245.642 11.3996C245.6 11.3835 245.555 11.3768 245.51 11.3799C245.466 11.3783 245.422 11.3861 245.381 11.4029C245.34 11.4197 245.303 11.445 245.273 11.4772C245.242 11.5094 245.219 11.5478 245.205 11.5896C245.191 11.6315 245.186 11.6759 245.19 11.7199V12.6399C245.185 12.6835 245.191 12.7276 245.205 12.769C245.219 12.8104 245.242 12.8481 245.273 12.8796C245.303 12.911 245.34 12.9354 245.381 12.951C245.422 12.9666 245.466 12.973 245.51 12.9699C245.551 12.9726 245.593 12.967 245.632 12.9532C245.672 12.9395 245.708 12.9179 245.739 12.8899C245.769 12.8619 245.794 12.8281 245.812 12.7903C245.829 12.7525 245.839 12.7115 245.84 12.6699V12.6399Z" fill="#5E5E5E"/>
<path d="M236.48 16.33C236.483 16.4495 236.463 16.5684 236.42 16.68C236.358 16.8118 236.259 16.9222 236.134 16.997C236.009 17.0718 235.865 17.1077 235.72 17.1C235.569 17.1117 235.418 17.0755 235.289 16.9965C235.159 16.9175 235.058 16.7997 235 16.66C234.959 16.5548 234.939 16.4428 234.94 16.33V15.33C234.94 14.96 235.25 14.72 235.69 14.72C236.13 14.72 236.42 14.96 236.42 15.32V15.4V15.45H236.06C236.06 15.4154 236.053 15.3812 236.039 15.3495C236.025 15.3178 236.005 15.2892 235.98 15.2657C235.954 15.2423 235.924 15.2243 235.892 15.213C235.859 15.2016 235.824 15.1972 235.79 15.2C235.754 15.1973 235.718 15.2019 235.684 15.2137C235.65 15.2256 235.619 15.2443 235.593 15.2687C235.567 15.2931 235.546 15.3227 235.531 15.3557C235.517 15.3886 235.51 15.4241 235.51 15.46V15.77C235.611 15.6861 235.739 15.6432 235.87 15.65C235.994 15.6478 236.116 15.6803 236.222 15.744C236.328 15.8076 236.414 15.8998 236.47 16.01C236.495 16.1149 236.499 16.2238 236.48 16.33V16.33ZM236.01 16.33C236.031 16.2581 236.031 16.1819 236.01 16.11C235.987 16.0674 235.952 16.0324 235.909 16.0093C235.867 15.9863 235.818 15.9761 235.77 15.98C235.72 15.974 235.67 15.9832 235.625 16.0064C235.58 16.0296 235.544 16.0657 235.52 16.11C235.484 16.181 235.466 16.2603 235.47 16.34C235.455 16.4058 235.455 16.4742 235.47 16.54C235.493 16.5863 235.529 16.6251 235.573 16.6517C235.617 16.6783 235.668 16.6915 235.72 16.69C235.772 16.6943 235.824 16.6821 235.869 16.6552C235.914 16.6283 235.949 16.588 235.97 16.54C235.999 16.4775 236.009 16.4082 236 16.34L236.01 16.33Z" fill="#5E5E5E"/>
<path d="M236.73 16.35V15.47C236.725 15.3658 236.742 15.2618 236.782 15.1652C236.821 15.0685 236.88 14.9815 236.957 14.9102C237.033 14.8389 237.123 14.7849 237.222 14.7521C237.321 14.7193 237.426 14.7083 237.53 14.72C237.633 14.7098 237.736 14.722 237.834 14.7555C237.932 14.7891 238.021 14.8432 238.096 14.9144C238.171 14.9856 238.23 15.072 238.269 15.1679C238.307 15.2638 238.325 15.3668 238.32 15.47V16.35C238.328 16.4549 238.312 16.5602 238.275 16.6585C238.238 16.7569 238.18 16.8458 238.104 16.9192C238.029 16.9926 237.939 17.0487 237.839 17.0833C237.74 17.118 237.634 17.1305 237.53 17.12C237.425 17.1303 237.319 17.1177 237.219 17.0831C237.119 17.0485 237.028 16.9927 236.952 16.9195C236.876 16.8463 236.817 16.7575 236.779 16.6591C236.74 16.5608 236.724 16.4554 236.73 16.35V16.35ZM237.85 16.35V15.43C237.854 15.3864 237.849 15.3424 237.835 15.301C237.821 15.2596 237.797 15.2219 237.767 15.1904C237.736 15.1589 237.699 15.1345 237.658 15.1189C237.617 15.1033 237.573 15.0969 237.53 15.1C237.486 15.0971 237.441 15.1036 237.4 15.1191C237.359 15.1346 237.321 15.1589 237.29 15.1902C237.259 15.2214 237.234 15.2589 237.219 15.3003C237.203 15.3417 237.197 15.3859 237.2 15.43V16.35C237.197 16.3941 237.203 16.4383 237.219 16.4797C237.234 16.5211 237.259 16.5587 237.29 16.5899C237.321 16.6212 237.359 16.6454 237.4 16.6609C237.441 16.6765 237.486 16.683 237.53 16.68C237.571 16.6828 237.612 16.677 237.651 16.6632C237.69 16.6493 237.725 16.6277 237.755 16.5996C237.785 16.5714 237.809 16.5374 237.825 16.4997C237.842 16.4619 237.85 16.4212 237.85 16.38V16.35Z" fill="#5E5E5E"/>
<path d="M230.14 21.4V21.7C230.142 21.7082 230.142 21.7168 230.14 21.725C230.137 21.7331 230.133 21.7406 230.127 21.7466C230.121 21.7526 230.113 21.7569 230.105 21.7593C230.097 21.7616 230.088 21.7619 230.08 21.7599H229.96V22.28C229.96 22.28 229.96 22.34 229.91 22.34H229.55C229.542 22.3419 229.533 22.3416 229.525 22.3393C229.517 22.337 229.51 22.3326 229.504 22.3266C229.498 22.3206 229.493 22.3132 229.491 22.305C229.488 22.2968 229.488 22.2882 229.49 22.28V21.7599H228.49C228.482 21.7619 228.473 21.7616 228.465 21.7593C228.457 21.7569 228.45 21.7526 228.444 21.7466C228.438 21.7406 228.433 21.7331 228.431 21.725C228.429 21.7168 228.428 21.7082 228.43 21.7V21.46C228.427 21.4367 228.427 21.4132 228.43 21.39L229.02 20.0699C229.031 20.0638 229.043 20.0605 229.055 20.0605C229.067 20.0605 229.08 20.0638 229.09 20.0699H229.48C229.48 20.0699 229.54 20.0699 229.48 20.1299L228.93 21.3599H229.48V20.9699C229.478 20.9616 229.478 20.953 229.481 20.9449C229.483 20.9367 229.488 20.9293 229.494 20.9233C229.5 20.9173 229.507 20.9129 229.515 20.9106C229.523 20.9082 229.532 20.908 229.54 20.9099H229.9C229.9 20.9099 229.95 20.9099 229.95 20.9699V21.3599H230.07C230.077 21.3567 230.085 21.3553 230.093 21.3557C230.101 21.3561 230.108 21.3583 230.115 21.3622C230.122 21.3661 230.128 21.3716 230.132 21.3781C230.137 21.3847 230.139 21.3922 230.14 21.4V21.4Z" fill="#5E5E5E"/>
<path d="M230.48 21.6299V20.7499C230.475 20.6467 230.493 20.5436 230.531 20.4477C230.57 20.3519 230.629 20.2654 230.704 20.1943C230.778 20.1231 230.868 20.0689 230.966 20.0354C231.063 20.0018 231.167 19.9898 231.27 19.9999C231.374 19.9882 231.479 19.9991 231.578 20.032C231.677 20.0648 231.767 20.1188 231.843 20.1901C231.919 20.2614 231.979 20.3484 232.018 20.4451C232.057 20.5418 232.075 20.6458 232.07 20.7499V21.6299C232.076 21.7353 232.06 21.8408 232.021 21.9391C231.983 22.0374 231.924 22.1262 231.848 22.1994C231.772 22.2726 231.68 22.3284 231.581 22.363C231.481 22.3976 231.375 22.4103 231.27 22.3999C231.165 22.4105 231.06 22.3979 230.96 22.3632C230.861 22.3285 230.771 22.2725 230.695 22.1991C230.62 22.1257 230.562 22.0367 230.525 21.9384C230.487 21.8401 230.472 21.7348 230.48 21.6299V21.6299ZM231.6 21.6299V20.7099C231.608 20.6625 231.606 20.6138 231.594 20.5672C231.581 20.5207 231.559 20.4774 231.528 20.4405C231.497 20.4036 231.458 20.374 231.414 20.3536C231.371 20.3333 231.323 20.3227 231.275 20.3227C231.227 20.3227 231.179 20.3333 231.136 20.3536C231.092 20.374 231.053 20.4036 231.022 20.4405C230.991 20.4774 230.969 20.5207 230.956 20.5672C230.944 20.6138 230.942 20.6625 230.95 20.7099V21.6299C230.942 21.6774 230.944 21.7261 230.956 21.7726C230.969 21.8192 230.991 21.8624 231.022 21.8993C231.053 21.9362 231.092 21.9659 231.136 21.9862C231.179 22.0066 231.227 22.0171 231.275 22.0171C231.323 22.0171 231.371 22.0066 231.414 21.9862C231.458 21.9659 231.497 21.9362 231.528 21.8993C231.559 21.8624 231.581 21.8192 231.594 21.7726C231.606 21.7261 231.608 21.6774 231.6 21.6299V21.6299Z" fill="#5E5E5E"/>
<path d="M224.1 28.84V28.56C224.095 28.5489 224.093 28.5371 224.093 28.525C224.093 28.513 224.095 28.5011 224.1 28.49C224.36 28.22 224.6 27.95 224.82 27.71C224.971 27.5782 225.079 27.404 225.13 27.21C225.13 27.1305 225.099 27.0541 225.042 26.9979C224.986 26.9416 224.91 26.91 224.83 26.91C224.751 26.91 224.674 26.9416 224.618 26.9979C224.562 27.0541 224.53 27.1305 224.53 27.21V27.28C224.532 27.2883 224.532 27.2969 224.529 27.3051C224.527 27.3132 224.523 27.3207 224.517 27.3267C224.511 27.3327 224.503 27.337 224.495 27.3394C224.487 27.3417 224.478 27.342 224.47 27.34H224.11C224.102 27.342 224.093 27.3417 224.085 27.3394C224.077 27.337 224.069 27.3327 224.063 27.3267C224.057 27.3207 224.053 27.3132 224.051 27.3051C224.048 27.2969 224.048 27.2883 224.05 27.28V27.14C224.05 26.77 224.4 26.54 224.83 26.54C224.925 26.5289 225.021 26.5375 225.112 26.5653C225.203 26.593 225.287 26.6394 225.36 26.7014C225.432 26.7634 225.491 26.8397 225.532 26.9255C225.573 27.0114 225.597 27.1048 225.6 27.2C225.578 27.426 225.479 27.6376 225.32 27.8C225.15 28.01 224.94 28.23 224.71 28.47H225.58C225.588 28.4681 225.597 28.4683 225.605 28.4707C225.613 28.473 225.621 28.4773 225.627 28.4833C225.633 28.4893 225.637 28.4968 225.639 28.505C225.642 28.5131 225.642 28.5218 225.64 28.53V28.82C225.64 28.82 225.64 28.82 225.58 28.82H224.11L224.1 28.84Z" fill="#5E5E5E"/>
<path d="M225.97 28.17V27.29C225.97 27.0805 226.053 26.8795 226.202 26.7314C226.35 26.5832 226.551 26.5 226.76 26.5C226.97 26.5 227.171 26.5832 227.319 26.7314C227.467 26.8795 227.55 27.0805 227.55 27.29V28.17C227.55 28.3795 227.467 28.5805 227.319 28.7286C227.171 28.8768 226.97 28.96 226.76 28.96C226.551 28.96 226.35 28.8768 226.202 28.7286C226.053 28.5805 225.97 28.3795 225.97 28.17V28.17ZM227.08 28.17V27.26C227.085 27.216 227.079 27.1716 227.065 27.1297C227.051 27.0878 227.028 27.0495 226.997 27.0173C226.967 26.9851 226.93 26.9598 226.889 26.943C226.848 26.9262 226.804 26.9183 226.76 26.92C226.715 26.9168 226.67 26.9236 226.628 26.9397C226.586 26.9558 226.548 26.981 226.516 27.0134C226.485 27.0457 226.461 27.0846 226.446 27.1272C226.431 27.1698 226.426 27.2151 226.43 27.26V28.17C226.426 28.2149 226.431 28.2603 226.446 28.3029C226.461 28.3455 226.485 28.3842 226.516 28.4166C226.548 28.449 226.586 28.4742 226.628 28.4903C226.67 28.5064 226.715 28.5131 226.76 28.51C226.803 28.5114 226.845 28.5041 226.884 28.4885C226.924 28.4729 226.96 28.4494 226.99 28.4194C227.02 28.3894 227.043 28.3535 227.059 28.3141C227.074 28.2746 227.082 28.2324 227.08 28.19V28.17Z" fill="#5E5E5E"/>
<g style="mix-blend-mode:multiply" opacity="0.9">
<g style="mix-blend-mode:multiply" opacity="0.1">
<path d="M250.16 49.74L251.38 45.2C251.79 43.65 251.11 43.3001 251.38 42.0901C251.65 40.8801 252.49 40.79 252.88 39.31L260.2 10.74C260.41 10.03 261.26 9.96004 261.07 11.01L255.58 39.64C255.29 41.06 255.97 41.64 255.69 42.79C255.41 43.94 254.64 44.0001 254.32 45.5901L253.4 50.2C252.9 52.94 249.48 52 250.16 49.74Z" fill="white"/>
</g>
<g style="mix-blend-mode:multiply" opacity="0.11">
<path d="M250.15 49.7501L251.38 45.18C251.79 43.64 251.11 43.2901 251.38 42.0801C251.65 40.8701 252.48 40.7901 252.87 39.3101L260.19 10.74C260.39 10.02 261.26 9.97005 261.06 11.0001C261.06 11.0801 255.58 39.5401 255.57 39.6401C255.27 41.0601 255.95 41.64 255.67 42.79C255.39 43.94 254.62 44.0001 254.31 45.5801L253.38 50.2001C252.88 52.9301 249.48 52.0001 250.15 49.7501Z" fill="#FDFDFD"/>
</g>
<g style="mix-blend-mode:multiply" opacity="0.12">
<path d="M250.15 49.7502L251.38 45.1701C251.79 43.6201 251.12 43.2802 251.38 42.0802C251.64 40.8802 252.47 40.8002 252.86 39.3202C252.86 39.3202 260.14 10.8701 260.18 10.7301C260.38 10.0201 261.24 9.97014 261.04 10.9901C261.04 11.1301 255.57 39.4402 255.54 39.6402C255.24 41.0702 255.92 41.6402 255.64 42.7802C255.36 43.9202 254.64 44.0002 254.28 45.5802L253.36 50.2002C252.87 52.9202 249.48 52.0002 250.15 49.7502Z" fill="#FBFBFB"/>
</g>
<g style="mix-blend-mode:multiply" opacity="0.14">
<path d="M250.15 49.7601L251.38 45.1501C251.79 43.6101 251.12 43.2701 251.38 42.0701C251.64 40.8701 252.47 40.8001 252.85 39.3201C252.85 39.3201 260.12 10.93 260.18 10.72C260.37 10.02 261.18 9.97006 261.03 10.9901C261.03 11.1901 255.57 39.3401 255.52 39.6401C255.23 41.0701 255.9 41.6401 255.63 42.7801C255.36 43.9201 254.63 43.9901 254.26 45.5701L253.34 50.2001C252.85 52.9001 249.48 52.0001 250.15 49.7601Z" fill="#F8F8F8"/>
</g>
<g style="mix-blend-mode:multiply" opacity="0.15">
<path d="M250.14 49.7701L251.38 45.1301C251.79 43.6001 251.12 43.2501 251.38 42.0701C251.64 40.8901 252.46 40.8001 252.85 39.3301L260.17 10.7201C260.36 10.0301 261.17 9.98008 261.02 10.9801C260.96 11.2501 255.57 39.2401 255.51 39.6401C255.21 41.0801 255.89 41.6401 255.61 42.7801C255.33 43.9201 254.61 43.9901 254.25 45.5701C254.25 45.6401 253.32 50.2001 253.32 50.2001C252.84 52.8901 249.48 51.9401 250.14 49.7701Z" fill="#F6F6F6"/>
</g>
<g style="mix-blend-mode:multiply" opacity="0.16">
<path d="M250.14 49.7701L251.38 45.11C251.79 43.59 251.12 43.24 251.38 42.06C251.64 40.88 252.46 40.8001 252.84 39.3301C252.84 39.3301 260.07 11.0501 260.17 10.7101C260.36 10.0301 261.17 9.98001 261.01 10.97C260.94 11.31 255.57 39.14 255.49 39.63C255.19 41.08 255.87 41.6301 255.59 42.7701C255.31 43.9101 254.59 43.98 254.23 45.56C254.23 45.65 253.31 50.2001 253.31 50.2001C252.82 52.8801 249.48 51.9301 250.14 49.7701Z" fill="#F4F4F4"/>
</g>
<g style="mix-blend-mode:multiply" opacity="0.17">
<path d="M250.13 49.7801L251.39 45.1001C251.79 43.5701 251.13 43.2301 251.39 42.0501C251.65 40.8701 252.47 40.8001 252.85 39.3401C252.85 39.3401 260.06 11.1101 260.17 10.7101C260.36 10.0301 261.17 9.9801 261 10.9601C260.92 11.3701 255.58 39.0501 255.48 39.6301C255.18 41.0801 255.86 41.6301 255.59 42.7701C255.32 43.9101 254.59 43.9801 254.22 45.5601L253.3 50.2001C252.81 52.8701 249.48 51.9301 250.13 49.7801Z" fill="#F2F2F2"/>
</g>
<g style="mix-blend-mode:multiply" opacity="0.18">
<path d="M250.13 49.79L251.39 45.08C251.79 43.56 251.13 43.22 251.39 42.08C251.65 40.94 252.46 40.83 252.84 39.37C252.84 39.37 260.04 11.2 260.17 10.73C260.36 10.06 261.17 10.02 260.99 10.98C260.9 11.46 255.58 38.98 255.46 39.66C255.17 41.12 255.84 41.66 255.57 42.79C255.3 43.92 254.57 44.01 254.21 45.58C254.21 45.7 253.28 50.23 253.28 50.23C252.79 52.86 249.48 51.92 250.13 49.79Z" fill="#F0F0F0"/>
</g>
<g style="mix-blend-mode:multiply" opacity="0.19">
<path d="M250.13 49.79L251.39 45.0601C251.79 43.5501 251.13 43.2001 251.39 42.0601C251.65 40.9201 252.46 40.8201 252.84 39.3701L260.16 10.7101C260.35 10.0501 261.16 10.0101 260.98 10.9601C260.88 11.5101 255.58 38.8701 255.45 39.6501C255.15 41.1101 255.83 41.5901 255.55 42.7801C255.27 43.9701 254.55 43.9901 254.19 45.5701C254.19 45.7101 253.27 50.22 253.27 50.22C252.77 52.84 249.48 51.91 250.13 49.79Z" fill="#EDEDED"/>
</g>
<g style="mix-blend-mode:multiply" opacity="0.21">
<path d="M250.12 49.8001L251.39 45.0501C251.8 43.5301 251.14 43.1901 251.39 42.0501C251.64 40.9101 252.45 40.8101 252.83 39.3601C252.83 39.3601 259.98 11.3002 260.15 10.7002C260.32 10.1002 261.15 10.0001 260.96 10.9401C260.84 11.5601 255.57 38.7602 255.42 39.6402C255.12 41.1002 255.8 41.5802 255.53 42.7702C255.26 43.9602 254.53 43.9801 254.16 45.5501L253.24 50.2102C252.76 52.8302 249.48 51.9001 250.12 49.8001Z" fill="#EBEBEB"/>
</g>
<g style="mix-blend-mode:multiply" opacity="0.22">
<path d="M250.12 49.8L251.39 45.0301C251.8 43.5201 251.14 43.1801 251.39 42.0301C251.64 40.8801 252.44 40.81 252.82 39.36C252.82 39.36 259.96 11.36 260.15 10.68C260.34 10 261.15 10 260.95 10.92C260.82 11.6 255.57 38.6501 255.4 39.6301C255.1 41.1001 255.78 41.5601 255.51 42.7501C255.24 43.9401 254.51 43.96 254.15 45.54C254.15 45.71 253.22 50.2001 253.22 50.2001C252.74 52.8201 249.48 51.89 250.12 49.8Z" fill="#E9E9E9"/>
</g>
<g style="mix-blend-mode:multiply" opacity="0.23">
<path d="M250.11 49.8101L251.39 45.0101C251.8 43.5101 251.14 43.1701 251.39 42.0101C251.64 40.8501 252.44 40.7901 252.82 39.3501C252.82 39.3501 259.94 11.3501 260.14 10.6501C260.34 9.95014 261.14 9.98014 260.94 10.9001C260.79 11.6401 255.57 38.5301 255.38 39.6101C255.09 41.0801 255.76 41.5401 255.49 42.7301C255.22 43.9201 254.49 43.9401 254.13 45.5101C254.13 45.7001 253.21 50.1801 253.21 50.1801C252.73 52.8101 249.48 51.8801 250.11 49.8101Z" fill="#E7E7E7"/>
</g>
<g style="mix-blend-mode:multiply" opacity="0.24">
<path d="M250.11 49.8201L251.39 45.0001C251.8 43.5001 251.14 43.1501 251.39 42.0001C251.64 40.8501 252.44 40.79 252.81 39.35C252.81 39.35 259.92 11.4501 260.14 10.6501C260.31 10.0101 261.14 9.98008 260.93 10.8901C260.72 11.8001 255.57 38.4301 255.37 39.6101C255.07 41.0901 255.74 41.54 255.48 42.72C255.22 43.9 254.48 43.9401 254.12 45.5101C254.12 45.7201 253.19 50.1801 253.19 50.1801C252.71 52.8001 249.48 51.8801 250.11 49.8201Z" fill="#E4E4E4"/>
</g>
<g style="mix-blend-mode:multiply" opacity="0.25">
<path d="M250.11 49.82L251.39 44.98C251.8 43.48 251.15 43.14 251.39 41.98C251.63 40.82 252.39 40.7701 252.81 39.3401C252.81 39.3401 259.89 11.49 260.13 10.62C260.31 10 261.13 9.97002 260.92 10.86C260.71 11.75 255.57 38.3101 255.35 39.5901C255.05 41.0701 255.73 41.51 255.46 42.7C255.19 43.89 254.46 43.91 254.1 45.48C254.04 45.71 253.18 50.16 253.18 50.16C252.7 52.79 249.48 51.87 250.11 49.82Z" fill="#E2E2E2"/>
</g>
<g style="mix-blend-mode:multiply" opacity="0.27">
<path d="M250.1 49.8301L251.4 44.9601C251.8 43.4701 251.15 43.1301 251.4 41.9601C251.65 40.7901 252.4 40.7601 252.81 39.3301C252.81 39.3301 259.88 11.54 260.14 10.61C260.31 9.99003 261.14 9.96007 260.92 10.8401C260.7 11.7201 255.58 38.2 255.34 39.57C255.1 40.94 255.72 41.5 255.45 42.69C255.18 43.88 254.45 43.9 254.09 45.47C254.03 45.71 253.17 50.1501 253.17 50.1501C252.68 52.7701 249.48 51.8601 250.1 49.8301Z" fill="#E0E0E0"/>
</g>
<g style="mix-blend-mode:multiply" opacity="0.28">
<path d="M250.1 49.8301L251.4 44.9501C251.8 43.4601 251.15 43.1201 251.4 42.0101C251.65 40.9001 252.4 40.8101 252.81 39.3901C252.81 39.3901 259.81 11.6501 260.14 10.6501C260.31 10.0401 261.07 10.0101 260.9 10.8801C260.73 11.7501 255.58 38.15 255.32 39.62C255.06 41.09 255.7 41.54 255.44 42.73C255.18 43.92 254.44 43.9401 254.08 45.5101C254.01 45.7701 253.15 50.1901 253.15 50.1901C252.67 52.7601 249.48 51.8501 250.1 49.8301Z" fill="#DEDEDE"/>
</g>
<g style="mix-blend-mode:multiply" opacity="0.29">
<path d="M250.1 49.8401L251.4 44.9301C251.8 43.4501 251.16 43.1001 251.4 42.0001C251.64 40.9001 252.4 40.8101 252.8 39.3901C252.8 39.3901 259.8 11.7101 260.13 10.6401C260.3 10.0401 261.06 10.0201 260.89 10.8701C260.68 11.9601 255.58 38.0501 255.31 39.6201C255.04 41.1901 255.68 41.5401 255.42 42.7301C255.16 43.9201 254.42 43.9401 254.06 45.5101C253.99 45.7801 253.14 50.1901 253.14 50.1901C252.65 52.7501 249.48 51.8401 250.1 49.8401Z" fill="#DCDCDC"/>
</g>
<g style="mix-blend-mode:multiply" opacity="0.3">
<path d="M250.09 49.8501L251.4 44.9101C251.8 43.4301 251.16 43.0901 251.4 42.0001C251.64 40.9101 252.4 40.8102 252.79 39.4002C252.79 39.4002 259.79 11.7701 260.12 10.6401C260.28 10.0401 261.04 10.0201 260.87 10.8601C260.65 12.0101 255.57 37.9601 255.28 39.6201C254.98 41.1201 255.66 41.5401 255.39 42.7301C255.12 43.9201 254.39 43.9401 254.03 45.5001C253.96 45.8001 253.11 50.1901 253.11 50.1901C252.64 52.7401 249.48 51.8401 250.09 49.8501Z" fill="#D9D9D9"/>
</g>
<g style="mix-blend-mode:multiply" opacity="0.31">
<path d="M250.09 49.85L251.4 44.85C251.8 43.38 251.16 43.0401 251.4 41.9501C251.64 40.8601 252.4 40.78 252.79 39.36C252.79 39.36 259.79 11.7901 260.11 10.5901C260.28 10.0001 261.02 9.98005 260.86 10.8101C260.62 12.0301 255.57 37.8101 255.26 39.5801C254.96 41.0901 255.64 41.49 255.38 42.68C255.12 43.87 254.38 43.8901 254.02 45.4601C253.94 45.7701 253.09 50.1501 253.09 50.1501C252.62 52.7301 249.48 51.83 250.09 49.85Z" fill="#D7D7D7"/>
</g>
<g style="mix-blend-mode:multiply" opacity="0.33">
<path d="M250.08 49.86L251.4 44.86C251.8 43.39 251.17 43.05 251.4 41.97C251.63 40.89 252.4 40.8 252.78 39.39C252.78 39.39 259.78 11.87 260.11 10.6C260.27 10.02 261.01 10.01 260.85 10.83C260.6 12.11 255.57 37.74 255.24 39.6C254.95 41.11 255.62 41.51 255.36 42.7C255.1 43.89 254.36 43.91 254 45.47C253.92 45.8 253.08 50.17 253.08 50.17C252.6 52.72 249.48 51.82 250.08 49.86Z" fill="#D5D5D5"/>
</g>
<g style="mix-blend-mode:multiply" opacity="0.34">
<path d="M250.08 49.86L251.4 44.86C251.8 43.39 251.17 43.05 251.4 41.98C251.63 40.91 252.4 40.82 252.78 39.42C252.78 39.42 259.78 11.95 260.1 10.62C260.26 10.04 261 10.0301 260.84 10.8401C260.57 12.1901 255.56 37.66 255.23 39.62C254.93 41.14 255.6 41.5301 255.34 42.7101C255.08 43.8901 254.34 43.92 253.99 45.49C253.9 45.83 253.06 50.19 253.06 50.19C252.59 52.7 249.48 51.81 250.08 49.86Z" fill="#D3D3D3"/>
</g>
<g style="mix-blend-mode:multiply" opacity="0.35">
<path d="M250.08 49.8701L251.4 44.8701C251.8 43.4101 251.17 43.0701 251.4 42.0101C251.63 40.9501 252.4 40.8501 252.77 39.4501C252.77 39.4501 259.71 12.0401 260.1 10.6401C260.26 10.0701 260.98 10.06 260.83 10.86C260.55 12.28 255.56 37.5901 255.21 39.6501C254.91 41.1701 255.58 41.55 255.32 42.74C255.06 43.93 254.32 43.9501 253.97 45.5101C253.88 45.8801 253.04 50.22 253.04 50.22C252.57 52.69 249.48 51.8001 250.08 49.8701Z" fill="#D1D1D1"/>
</g>
<g style="mix-blend-mode:multiply" opacity="0.36">
<path d="M250.07 49.88L251.41 44.88C251.8 43.42 251.17 43.0801 251.41 42.0201C251.65 40.9601 252.41 40.87 252.78 39.48C252.78 39.48 259.7 12.1201 260.11 10.6501C260.26 10.1001 260.98 10.09 260.83 10.87C260.53 12.36 255.57 37.51 255.2 39.67C254.9 41.19 255.58 41.5701 255.32 42.7601C255.06 43.9501 254.32 43.9701 253.96 45.5301C253.87 45.9101 253.04 50.24 253.04 50.24C252.56 52.68 249.48 51.8 250.07 49.88Z" fill="#CECECE"/>
</g>
<g style="mix-blend-mode:multiply" opacity="0.37">
<path d="M250.07 49.8801L251.41 44.8101C251.8 43.3601 251.18 43.0202 251.41 41.9602C251.64 40.9002 252.41 40.8201 252.77 39.4301C252.77 39.4301 259.68 12.1301 260.1 10.6001C260.26 10.0501 260.97 10.0401 260.81 10.8101C260.51 12.3701 255.57 37.3601 255.19 39.6101C254.89 41.1501 255.56 41.5102 255.3 42.7002C255.04 43.8902 254.3 43.9101 253.95 45.4701C253.85 45.8701 253.02 50.1901 253.02 50.1901C252.54 52.6701 249.48 51.7901 250.07 49.8801Z" fill="#CCCCCC"/>
</g>
<g style="mix-blend-mode:multiply" opacity="0.38">
<path d="M250.06 49.89L251.41 44.79C251.8 43.34 251.18 43.01 251.41 41.96C251.64 40.91 252.41 40.82 252.77 39.44C252.77 39.44 259.66 12.19 260.1 10.59C260.25 10.05 260.95 10.04 260.8 10.8C260.48 12.43 255.57 37.26 255.17 39.61C254.87 41.15 255.54 41.51 255.28 42.7C255.02 43.89 254.28 43.9099 253.93 45.4699C253.83 45.8799 253 50.19 253 50.19C252.53 52.66 249.48 51.78 250.06 49.89Z" fill="#CACACA"/>
</g>
<g style="mix-blend-mode:multiply" opacity="0.4">
<path d="M250.06 49.9001L251.41 44.7801C251.8 43.3301 251.18 42.9901 251.41 41.9501C251.64 40.9101 252.41 40.8201 252.75 39.4401C252.75 39.4401 259.62 12.2501 260.08 10.5901C260.23 10.0501 260.93 10.0501 260.78 10.7901C260.45 12.4801 255.56 37.1601 255.14 39.6101C254.84 41.1501 255.51 41.5101 255.26 42.6901C255.01 43.8701 254.26 43.9001 253.9 45.4601C253.8 45.8901 252.98 50.1901 252.98 50.1901C252.48 52.6401 249.48 51.7701 250.06 49.9001Z" fill="#C8C8C8"/>
</g>
<g style="mix-blend-mode:multiply" opacity="0.41">
<path d="M250.06 49.9001L251.41 44.7601C251.8 43.3201 251.19 42.9801 251.41 41.9501C251.63 40.9201 252.41 40.8301 252.75 39.4501C252.75 39.4501 259.6 12.3101 260.08 10.5801C260.23 10.0501 260.92 10.0501 260.77 10.7801C260.42 12.5401 255.56 37.06 255.12 39.61C254.82 41.16 255.5 41.5001 255.24 42.6901C254.98 43.8801 254.24 43.9001 253.89 45.4601C253.78 45.9101 252.96 50.1901 252.96 50.1901C252.48 52.6301 249.48 51.7601 250.06 49.9001Z" fill="#C6C6C6"/>
</g>
<g style="mix-blend-mode:multiply" opacity="0.42">
<path d="M250.05 49.91L251.41 44.74C251.8 43.3 251.19 42.9701 251.41 41.9401C251.63 40.9101 252.41 40.8301 252.75 39.4501C252.75 39.4501 259.58 12.3701 260.08 10.5701C260.22 10.0501 260.9 10.0501 260.76 10.7701C260.4 12.6001 255.56 36.96 255.11 39.61C254.81 41.16 255.48 41.5001 255.22 42.6901C254.96 43.8801 254.22 43.9001 253.87 45.4501C253.76 45.9201 252.95 50.1901 252.95 50.1901C252.48 52.6201 249.48 51.75 250.05 49.91Z" fill="#C3C3C3"/>
</g>
<g style="mix-blend-mode:multiply" opacity="0.43">
<path d="M250.05 49.91L251.41 44.72C251.8 43.29 251.19 42.9601 251.41 41.9401C251.63 40.9201 252.41 40.8301 252.74 39.4601C252.74 39.4601 259.56 12.4601 260.07 10.5701C260.21 10.0501 260.89 10.0601 260.75 10.7701C260.38 12.6601 255.56 36.86 255.09 39.61C254.79 41.17 255.46 41.5 255.21 42.68C254.96 43.86 254.21 43.8901 253.86 45.4501C253.74 45.9301 252.93 50.1901 252.93 50.1901C252.48 52.6101 249.48 51.75 250.05 49.91Z" fill="#C1C1C1"/>
</g>
<g style="mix-blend-mode:multiply" opacity="0.44">
<path d="M250.04 49.92L251.42 44.7101C251.8 43.2801 251.19 42.9401 251.42 41.9301C251.65 40.9201 252.42 40.8301 252.75 39.4601C252.75 39.4601 259.55 12.4601 260.08 10.5601C260.22 10.0501 260.89 10.0601 260.75 10.7601C260.36 12.7601 255.57 36.76 255.08 39.61C254.78 41.17 255.45 41.49 255.2 42.68C254.95 43.87 254.2 43.8901 253.85 45.4401C253.73 45.9401 252.92 50.1901 252.92 50.1901C252.48 52.6001 249.48 51.74 250.04 49.92Z" fill="#BFBFBF"/>
</g>
<g style="mix-blend-mode:multiply" opacity="0.46">
<path d="M250.04 49.9301L251.42 44.6901C251.8 43.2701 251.2 42.9301 251.42 41.9301C251.64 40.9301 252.42 40.83 252.74 39.47C252.74 39.47 259.52 12.5501 260.07 10.5501C260.21 10.0501 260.87 10.0601 260.74 10.7501C260.34 12.7501 255.57 36.67 255.06 39.61C254.76 41.17 255.43 41.49 255.18 42.67C254.93 43.85 254.18 43.8801 253.83 45.4301C253.71 45.9601 252.91 50.1901 252.91 50.1901C252.48 52.5901 249.48 51.7301 250.04 49.9301Z" fill="#BDBDBD"/>
</g>
<g style="mix-blend-mode:multiply" opacity="0.47">
<path d="M250.04 49.93L251.42 44.67C251.8 43.25 251.2 42.92 251.42 41.92C251.64 40.92 252.42 40.83 252.74 39.48C252.74 39.48 259.5 12.61 260.07 10.55C260.2 10.06 260.86 10.07 260.73 10.74C260.31 12.84 255.57 36.57 255.05 39.61C254.75 41.18 255.42 41.48 255.17 42.67C254.92 43.86 254.17 43.88 253.82 45.43C253.69 45.97 252.89 50.19 252.89 50.19C252.42 52.57 249.48 51.72 250.04 49.93Z" fill="#BABABA"/>
</g>
<g style="mix-blend-mode:multiply" opacity="0.48">
<path d="M250.03 49.94L251.42 44.66C251.8 43.24 251.2 42.91 251.42 41.92C251.64 40.93 252.37 40.83 252.72 39.48C252.72 39.48 259.47 12.67 260.05 10.54C260.19 10.06 260.83 10.07 260.7 10.73C260.28 12.89 255.56 36.47 255.02 39.61C254.72 41.18 255.39 41.48 255.14 42.67C254.89 43.86 254.14 43.88 253.79 45.42C253.65 45.98 252.86 50.19 252.86 50.19C252.4 52.56 249.48 51.71 250.03 49.94Z" fill="#B8B8B8"/>
</g>
<g style="mix-blend-mode:multiply" opacity="0.49">
<path d="M250.03 49.9401L251.42 44.6401C251.8 43.2301 251.21 42.8901 251.42 41.9101C251.63 40.9301 252.37 40.8301 252.72 39.4901C252.72 39.4901 259.45 12.7301 260.05 10.4901C260.18 10.0101 260.82 10.0201 260.69 10.6701C260.25 12.9001 255.56 36.3201 255 39.5501C254.7 41.1401 255.37 41.4301 255.12 42.6101C254.87 43.7901 254.12 43.8201 253.77 45.3701C253.63 45.9401 252.85 50.1401 252.85 50.1401C252.39 52.5501 249.48 51.7101 250.03 49.9401Z" fill="#B6B6B6"/>
</g>
<g style="mix-blend-mode:multiply" opacity="0.5">
<path d="M250.03 50.0001L251.42 44.67C251.8 43.26 251.21 42.9301 251.42 41.9601C251.63 40.9901 252.36 40.89 252.71 39.54C252.71 39.54 259.42 12.84 260.05 10.54C260.18 10.07 260.81 10.09 260.68 10.72C260.23 13.02 255.56 36.28 254.98 39.61C254.68 41.2 255.35 41.48 255.11 42.67C254.87 43.86 254.11 43.88 253.76 45.42C253.61 46.01 252.83 50.1901 252.83 50.1901C252.37 52.5401 249.48 51.7001 250.03 50.0001Z" fill="#B4B4B4"/>
</g>
<g style="mix-blend-mode:multiply" opacity="0.51">
<path d="M250.02 50.0001L251.42 44.6501C251.8 43.2401 251.21 42.9101 251.42 41.9401C251.63 40.9701 252.36 40.88 252.71 39.54C252.71 39.54 259.4 12.89 260.04 10.54C260.17 10.08 260.79 10.1 260.67 10.72C260.2 13.09 255.56 36.1901 254.97 39.6201C254.67 41.2101 255.34 41.4901 255.09 42.6201C254.84 43.7501 254.09 43.8301 253.74 45.3801C253.59 45.9901 252.81 50.1501 252.81 50.1501C252.36 52.5301 249.48 51.6901 250.02 50.0001Z" fill="#B2B2B2"/>
</g>
<g style="mix-blend-mode:multiply" opacity="0.53">
<path d="M250.02 50.0001L251.42 44.6301C251.8 43.2301 251.22 42.9001 251.42 41.9401C251.62 40.9801 252.36 40.88 252.71 39.54C252.71 39.54 259.38 12.95 260.04 10.54C260.16 10.08 260.78 10.1 260.66 10.72C260.18 13.15 255.56 36.0901 254.95 39.6201C254.65 41.2201 255.32 41.4801 255.07 42.6201C254.82 43.7601 254.07 43.8301 253.72 45.3701C253.57 46.0001 252.8 50.1501 252.8 50.1501C252.34 52.5201 249.48 51.6801 250.02 50.0001Z" fill="#AFAFAF"/>
</g>
<g style="mix-blend-mode:multiply" opacity="0.54">
<path d="M250.01 50.0001L251.43 44.6001C251.8 43.2101 251.22 42.8701 251.43 41.9201C251.64 40.9701 252.36 40.9201 252.71 39.5401C252.71 39.5401 259.37 13.0001 260.04 10.5401C260.17 10.0901 260.78 10.1201 260.66 10.7201C260.16 13.2201 255.57 36.0001 254.94 39.6301C254.64 41.2301 255.31 41.4901 255.07 42.6301C254.83 43.7701 254.07 43.8401 253.72 45.3801C253.56 46.0201 252.79 50.1601 252.79 50.1601C252.33 52.5001 249.48 51.6701 250.01 50.0001Z" fill="#ADADAD"/>
</g>
<g style="mix-blend-mode:multiply" opacity="0.55">
<path d="M250.01 50L251.43 44.58C251.8 43.18 251.22 42.85 251.43 41.9C251.64 40.95 252.36 40.9 252.71 39.53C252.71 39.53 259.35 13.05 260.04 10.53C260.16 10.09 260.76 10.12 260.65 10.71C260.14 13.28 255.57 35.9 254.92 39.63C254.62 41.23 255.29 41.49 255.05 42.63C254.81 43.77 254.05 43.84 253.7 45.38C253.54 46.04 252.78 50.17 252.78 50.17C252.31 52.49 249.48 51.67 250.01 50Z" fill="#ABABAB"/>
</g>
<g style="mix-blend-mode:multiply" opacity="0.56">
<path d="M250.01 50.0001L251.43 44.5601C251.8 43.1701 251.22 42.8401 251.43 41.9001C251.64 40.9601 252.36 40.9001 252.7 39.5401C252.7 39.5401 259.32 13.1101 260.04 10.5401C260.15 10.1001 260.75 10.1301 260.64 10.7101C260.11 13.3501 255.57 35.8101 254.91 39.6401C254.61 41.2501 255.28 41.4901 255.03 42.6401C254.78 43.7901 254.03 43.8501 253.69 45.3901C253.52 46.0701 252.76 50.1801 252.76 50.1801C252.29 52.4801 249.48 51.6601 250.01 50.0001Z" fill="#A9A9A9"/>
</g>
<g style="mix-blend-mode:multiply" opacity="0.57">
<path d="M250 50.0001L251.43 44.5301C251.8 43.1501 251.23 42.8201 251.43 41.8801C251.63 40.9401 252.34 40.8801 252.69 39.5301C252.69 39.5301 259.29 13.1601 260.02 10.5301C260.14 10.1101 260.73 10.1401 260.61 10.7001C260.08 13.4001 255.55 35.7001 254.88 39.6401C254.58 41.2501 255.25 41.4901 255 42.6401C254.75 43.7901 254 43.8501 253.66 45.3901C253.49 46.0901 252.73 50.1901 252.73 50.1901C252.28 52.4701 249.53 51.6501 250 50.0001Z" fill="#A7A7A7"/>
</g>
<g style="mix-blend-mode:multiply" opacity="0.59">
<path d="M250 50.0001L251.48 44.5001C251.85 43.1301 251.28 42.7901 251.48 41.8701C251.68 40.9501 252.39 40.8702 252.73 39.5302C252.73 39.5302 259.32 13.2102 260.07 10.5302C260.18 10.1102 260.76 10.1402 260.65 10.6902C260.11 13.4602 255.65 35.6202 254.91 39.6902C254.61 41.3102 255.28 41.5402 255.04 42.6902C254.8 43.8402 254.04 43.9002 253.69 45.4402C253.52 46.1502 252.77 50.2401 252.77 50.2401C252.26 52.4601 249.53 51.6401 250 50.0001Z" fill="#A4A4A4"/>
</g>
<g style="mix-blend-mode:multiply" opacity="0.6">
<path d="M249.99 50L251.43 44.49C251.8 43.11 251.23 42.78 251.43 41.86C251.63 40.94 252.34 40.86 252.68 39.54C252.68 39.54 259.25 13.27 260.01 10.48C260.13 10.07 260.7 10.1 260.59 10.64C260.03 13.48 255.59 35.48 254.85 39.64C254.54 41.27 255.21 41.49 254.97 42.64C254.73 43.79 253.97 43.85 253.63 45.38C253.45 46.11 252.7 50.19 252.7 50.19C252.25 52.44 249.53 51.63 249.99 50Z" fill="#A2A2A2"/>
</g>
<g style="mix-blend-mode:multiply" opacity="0.61">
<path d="M249.99 50L251.43 44.46C251.8 43.09 251.24 42.76 251.43 41.85C251.62 40.94 252.33 40.85 252.67 39.53C252.67 39.53 259.23 13.32 260.01 10.46C260.12 10.06 260.69 10.1 260.58 10.62C260.01 13.53 255.58 35.37 254.83 39.62C254.53 41.25 255.19 41.47 254.95 42.62C254.71 43.77 253.95 43.83 253.61 45.37C253.43 46.11 252.68 50.18 252.68 50.18C252.23 52.43 249.53 51.62 249.99 50Z" fill="#A0A0A0"/>
</g>
<g style="mix-blend-mode:multiply" opacity="0.62">
<path d="M249.99 50L251.43 44.44C251.8 43.08 251.24 42.75 251.43 41.84C251.62 40.93 252.33 40.84 252.67 39.54C252.67 39.54 259.2 13.38 260 10.46C260.11 10.06 260.67 10.1 260.57 10.62C259.98 13.62 255.57 35.27 254.81 39.62C254.51 41.26 255.18 41.46 254.94 42.62C254.7 43.78 253.94 43.83 253.59 45.36C253.41 46.13 252.67 50.18 252.67 50.18C252.22 52.42 249.53 51.62 249.99 50Z" fill="#9E9E9E"/>
</g>
<g style="mix-blend-mode:multiply" opacity="0.63">
<path d="M249.98 50.0001L251.44 44.4201C251.8 43.0501 251.24 42.7202 251.44 41.8302C251.64 40.9402 252.34 40.8302 252.68 39.5302C252.68 39.5302 259.19 13.4302 260.01 10.4402C260.12 10.0502 260.67 10.0901 260.57 10.6001C259.97 13.6001 255.57 35.1601 254.8 39.6001C254.5 41.2401 255.17 41.4401 254.93 42.6001C254.69 43.7601 253.93 43.8101 253.59 45.3501C253.4 46.1301 252.66 50.1701 252.66 50.1701C252.2 52.4101 249.53 51.6101 249.98 50.0001Z" fill="#9C9C9C"/>
</g>
<g style="mix-blend-mode:multiply" opacity="0.64">
<path d="M249.98 50.0001L251.44 44.4001C251.8 43.0401 251.25 42.7101 251.44 41.8201C251.63 40.9301 252.33 40.8201 252.67 39.5401C252.67 39.5401 259.17 13.5401 260.01 10.4301C260.11 10.0501 260.66 10.1001 260.56 10.5901C259.94 13.7001 255.56 35.0601 254.79 39.5901C254.48 41.2301 255.15 41.4301 254.91 42.5901C254.67 43.7501 253.91 43.8001 253.57 45.3301C253.38 46.1301 252.64 50.16 252.64 50.16C252.19 52.4 249.53 51.6001 249.98 50.0001Z" fill="#999999"/>
</g>
<g style="mix-blend-mode:multiply" opacity="0.66">
<path d="M249.97 50.0001L251.48 44.4001C251.84 43.0501 251.29 42.7201 251.48 41.8401C251.67 40.9601 252.37 40.8401 252.71 39.5601C252.71 39.5601 259.19 13.5601 260.04 10.4501C260.14 10.0701 260.68 10.1201 260.59 10.6001C259.96 13.7701 255.59 34.9801 254.81 39.6001C254.51 41.2501 255.17 41.4301 254.94 42.6001C254.71 43.7701 253.94 43.8101 253.6 45.3401C253.4 46.1501 252.67 50.1701 252.67 50.1701C252.17 52.3901 249.53 51.5901 249.97 50.0001Z" fill="#979797"/>
</g>
<g style="mix-blend-mode:multiply" opacity="0.67">
<path d="M249.97 50L251.44 44.3499C251.8 42.9999 251.25 42.67 251.44 41.79C251.63 40.91 252.32 40.79 252.65 39.53C252.65 39.53 259.12 13.59 259.99 10.4C260.09 10.03 260.62 10.08 260.53 10.55C259.88 13.79 255.53 34.84 254.74 39.55C254.44 41.2 255.11 41.38 254.87 42.55C254.63 43.72 253.87 43.76 253.53 45.29C253.33 46.12 252.6 50.13 252.6 50.13C252.16 52.37 249.53 51.58 249.97 50Z" fill="#959595"/>
</g>
<g style="mix-blend-mode:multiply" opacity="0.68">
<path d="M249.97 50L251.44 44.33C251.8 42.98 251.25 42.65 251.44 41.79C251.63 40.93 252.31 40.7901 252.65 39.5301C252.65 39.5301 259.1 13.6501 259.98 10.4001C260.08 10.0401 260.61 10.09 260.51 10.54C259.86 13.85 255.51 34.74 254.72 39.54C254.42 41.2 255.09 41.37 254.85 42.54C254.61 43.71 253.85 43.7501 253.51 45.2801C253.31 46.1301 252.58 50.12 252.58 50.12C252.14 52.36 249.53 51.58 249.97 50Z" fill="#939393"/>
</g>
<g style="mix-blend-mode:multiply" opacity="0.69">
<path d="M249.96 50.05L251.44 44.35C251.8 43.01 251.26 42.68 251.44 41.82C251.62 40.96 252.31 40.82 252.64 39.58C252.64 39.58 259.08 13.75 259.98 10.43C260.08 10.08 260.59 10.13 260.5 10.57C259.83 13.95 255.55 34.68 254.71 39.57C254.4 41.23 255.07 41.39 254.84 42.57C254.61 43.75 253.84 43.78 253.5 45.31C253.28 46.18 252.57 50.16 252.57 50.16C252.12 52.35 249.53 51.57 249.96 50.05Z" fill="#909090"/>
</g>
<g style="mix-blend-mode:multiply" opacity="0.7">
<path d="M249.96 50.05L251.44 44.3301C251.8 43.0001 251.26 42.6701 251.44 41.8201C251.62 40.9701 252.31 40.8201 252.64 39.5801C252.64 39.5801 259.05 13.81 259.98 10.42C259.983 10.38 259.994 10.3411 260.014 10.3061C260.033 10.2711 260.06 10.2409 260.093 10.2176C260.126 10.1943 260.163 10.1786 260.203 10.1716C260.242 10.1646 260.283 10.1665 260.321 10.1771C260.36 10.1877 260.396 10.2068 260.426 10.233C260.456 10.2591 260.481 10.2918 260.497 10.3284C260.513 10.3651 260.521 10.4049 260.52 10.4449C260.518 10.485 260.508 10.5243 260.49 10.5601C259.81 14.0101 255.55 34.5601 254.69 39.5601C254.38 41.2301 255.05 41.3901 254.82 42.5601C254.59 43.7301 253.82 43.77 253.48 45.3C253.26 46.18 252.55 50.1501 252.55 50.1501C252.11 52.3401 249.53 51.56 249.96 50.05Z" fill="#8E8E8E"/>
</g>
<g style="mix-blend-mode:multiply" opacity="0.72">
<path d="M249.96 50.0601L251.45 44.3201C251.8 42.9801 251.26 42.6601 251.45 41.8101C251.64 40.9601 252.31 40.8601 252.64 39.5901C252.64 39.5901 259.04 13.87 259.98 10.42C259.983 10.38 259.994 10.3411 260.014 10.3061C260.033 10.2711 260.06 10.2409 260.093 10.2176C260.125 10.1943 260.163 10.1786 260.202 10.1716C260.242 10.1646 260.282 10.1665 260.321 10.1771C260.36 10.1877 260.395 10.2068 260.426 10.233C260.456 10.2591 260.48 10.2918 260.497 10.3284C260.513 10.3651 260.521 10.4049 260.519 10.4449C260.518 10.485 260.508 10.5243 260.49 10.5601C259.79 14.0701 255.56 34.4901 254.68 39.5601C254.38 41.2401 255.04 41.3801 254.81 42.5601C254.58 43.7401 253.81 43.77 253.47 45.29C253.25 46.19 252.55 50.1501 252.55 50.1501C252.09 52.3301 249.53 51.5501 249.96 50.0601Z" fill="#8C8C8C"/>
</g>
<g style="mix-blend-mode:multiply" opacity="0.73">
<path d="M249.95 50.0701L251.45 44.3C251.8 42.97 251.27 42.65 251.45 41.81C251.63 40.97 252.31 40.86 252.64 39.6C252.64 39.6 259.02 13.93 259.98 10.41C259.988 10.3755 260.002 10.343 260.023 10.3143C260.044 10.2857 260.07 10.2615 260.1 10.2434C260.13 10.2252 260.164 10.2134 260.199 10.2087C260.234 10.204 260.27 10.2065 260.304 10.2161C260.338 10.2256 260.37 10.2419 260.397 10.2641C260.425 10.2863 260.447 10.3139 260.464 10.3452C260.48 10.3765 260.49 10.4107 260.493 10.446C260.496 10.4812 260.491 10.5166 260.48 10.55C259.77 14.13 255.56 34.39 254.66 39.55C254.36 41.23 255.03 41.37 254.8 42.55C254.57 43.73 253.8 43.76 253.46 45.29C253.23 46.21 252.53 50.1401 252.53 50.1401C252.08 52.3201 249.53 51.5401 249.95 50.0701Z" fill="#8A8A8A"/>
</g>
<g style="mix-blend-mode:multiply" opacity="0.74">
<path d="M249.95 50.0701L251.45 44.2801C251.8 42.9601 251.27 42.63 251.45 41.8C251.63 40.97 252.31 40.86 252.64 39.6C252.64 39.6 259 13.9901 259.97 10.4001C259.978 10.3656 259.992 10.333 260.013 10.3043C260.034 10.2757 260.06 10.2515 260.09 10.2334C260.121 10.2152 260.154 10.2034 260.189 10.1987C260.224 10.194 260.26 10.1965 260.294 10.206C260.328 10.2156 260.36 10.2319 260.387 10.2541C260.415 10.2763 260.438 10.3039 260.454 10.3352C260.47 10.3664 260.48 10.4007 260.483 10.436C260.486 10.4712 260.482 10.5066 260.47 10.54C259.74 14.18 255.56 34.29 254.65 39.54C254.34 41.22 255.01 41.36 254.78 42.54C254.55 43.72 253.78 43.7501 253.44 45.2701C253.21 46.2101 252.51 50.1301 252.51 50.1301C252.06 52.3001 249.53 51.5401 249.95 50.0701Z" fill="#888888"/>
</g>
<g style="mix-blend-mode:multiply" opacity="0.75">
<path d="M249.94 50.0801L251.45 44.2701C251.8 42.9501 251.27 42.62 251.45 41.79C251.63 40.96 252.29 40.86 252.62 39.61C252.62 39.61 258.97 14.0501 259.96 10.4001C259.977 10.3351 260.019 10.2796 260.078 10.2458C260.136 10.2121 260.205 10.2028 260.27 10.22C260.335 10.2373 260.39 10.2796 260.424 10.3378C260.458 10.3959 260.467 10.4651 260.45 10.5301C259.71 14.2401 255.55 34.1901 254.62 39.5801C254.31 41.2701 254.98 41.3901 254.75 42.5801C254.52 43.7701 253.75 43.7901 253.41 45.3201C253.18 46.3201 252.49 50.18 252.49 50.18C252.05 52.29 249.53 51.5301 249.94 50.0801Z" fill="#858585"/>
</g>
<g style="mix-blend-mode:multiply" opacity="0.76">
<path d="M249.94 50.0901L251.45 44.2501C251.8 42.9301 251.27 42.6101 251.45 41.7901C251.63 40.9701 252.29 40.8601 252.62 39.6101C252.62 39.6101 258.95 14.1201 259.95 10.3901C259.959 10.358 259.974 10.3278 259.994 10.3013C260.014 10.2749 260.039 10.2526 260.068 10.2359C260.097 10.2192 260.129 10.2083 260.162 10.2039C260.195 10.1995 260.228 10.2016 260.26 10.2101C260.292 10.2187 260.323 10.2335 260.349 10.2537C260.376 10.2739 260.398 10.299 260.414 10.3278C260.431 10.3566 260.442 10.3884 260.446 10.4214C260.451 10.4544 260.449 10.488 260.44 10.5201C259.68 14.3001 255.55 34.0901 254.6 39.5801C254.3 41.2701 254.96 41.3901 254.74 42.5801C254.52 43.7701 253.74 43.7901 253.4 45.3101C253.16 46.3101 252.47 50.1801 252.47 50.1801C252.03 52.2801 249.53 51.5201 249.94 50.0901Z" fill="#838383"/>
</g>
<g style="mix-blend-mode:multiply" opacity="0.77">
<path d="M249.94 50.09L251.45 44.23C251.8 42.92 251.28 42.6 251.45 41.78C251.62 40.96 252.29 40.86 252.61 39.62C252.61 39.62 258.93 14.18 259.95 10.39C259.953 10.3543 259.965 10.3198 259.983 10.2888C260.001 10.2579 260.026 10.2312 260.055 10.2105C260.084 10.1899 260.118 10.1758 260.153 10.1693C260.188 10.1627 260.224 10.1638 260.259 10.1725C260.294 10.1812 260.327 10.1973 260.355 10.2197C260.383 10.2421 260.406 10.2702 260.422 10.3023C260.438 10.3343 260.447 10.3694 260.448 10.4052C260.45 10.4411 260.444 10.4768 260.43 10.51C259.66 14.36 255.55 33.99 254.58 39.58C254.28 41.28 254.95 41.38 254.72 42.58C254.49 43.78 253.72 43.79 253.38 45.31C253.14 46.31 252.45 50.18 252.45 50.18C252.02 52.27 249.53 51.51 249.94 50.09Z" fill="#818181"/>
</g>
<g style="mix-blend-mode:multiply" opacity="0.79">
<path d="M249.93 50.1L251.45 44.22C251.8 42.91 251.28 42.5801 251.45 41.7801C251.62 40.9801 252.28 40.8601 252.61 39.6201C252.61 39.6201 258.91 14.2401 259.95 10.3801C259.954 10.346 259.965 10.3131 259.983 10.2838C260.001 10.2544 260.024 10.2292 260.053 10.2099C260.081 10.1905 260.113 10.1774 260.147 10.1715C260.181 10.1656 260.216 10.1671 260.249 10.1757C260.282 10.1844 260.313 10.2001 260.34 10.2218C260.366 10.2434 260.388 10.2705 260.403 10.3012C260.418 10.332 260.427 10.3656 260.428 10.3999C260.429 10.4342 260.423 10.4684 260.41 10.5001C259.63 14.4201 255.55 33.8901 254.57 39.5801C254.26 41.2801 254.93 41.3801 254.7 42.5801C254.47 43.7801 253.7 43.7901 253.37 45.3101C253.12 46.3101 252.44 50.1901 252.44 50.1901C252 52.2601 249.53 51.5 249.93 50.1Z" fill="#7F7F7F"/>
</g>
<g style="mix-blend-mode:multiply" opacity="0.8">
<path d="M249.93 50.1001L251.45 44.2001C251.8 42.8901 251.28 42.5701 251.45 41.7701C251.62 40.9701 252.28 40.8701 252.6 39.6301C252.6 39.6301 258.89 14.3001 259.94 10.3701C259.962 10.3166 260.003 10.273 260.055 10.2472C260.107 10.2215 260.166 10.2153 260.222 10.2299C260.278 10.2446 260.327 10.2789 260.36 10.3267C260.392 10.3745 260.407 10.4326 260.4 10.4901C259.61 14.4901 255.55 33.7901 254.55 39.5801C254.24 41.2801 254.91 41.3801 254.68 42.5801C254.45 43.7801 253.68 43.7901 253.35 45.3101C253.1 46.3101 252.42 50.1901 252.42 50.1901C251.99 52.2401 249.53 51.4901 249.93 50.1001Z" fill="#7D7D7D"/>
</g>
<g style="mix-blend-mode:multiply" opacity="0.81">
<path d="M249.92 50.1101L251.46 44.1801C251.8 42.8801 251.29 42.5601 251.46 41.7701C251.63 40.9801 252.29 40.8701 252.61 39.6301C252.61 39.6301 258.88 14.3601 259.95 10.3701C259.958 10.3406 259.971 10.3129 259.99 10.2886C260.009 10.2643 260.032 10.2439 260.058 10.2286C260.085 10.2133 260.114 10.2033 260.144 10.1993C260.175 10.1953 260.205 10.1973 260.235 10.2051C260.265 10.213 260.292 10.2267 260.317 10.2452C260.341 10.2638 260.361 10.287 260.377 10.3135C260.392 10.3399 260.402 10.3692 260.406 10.3995C260.41 10.4298 260.408 10.4606 260.4 10.4901C259.59 14.4901 255.55 33.6901 254.54 39.5701C254.24 41.2901 254.9 41.3701 254.68 42.5701C254.46 43.7701 253.68 43.7701 253.34 45.2901C253.09 46.2901 252.41 50.1801 252.41 50.1801C251.97 52.2301 249.53 51.4901 249.92 50.1101Z" fill="#7A7A7A"/>
</g>
<g style="mix-blend-mode:multiply" opacity="0.82">
<path d="M249.92 50.1201L251.46 44.1201C251.8 42.8201 251.29 42.5001 251.46 41.7101C251.63 40.9201 252.28 40.8201 252.6 39.5901C252.6 39.5901 258.86 14.3701 259.94 10.3101C259.956 10.2504 259.995 10.1995 260.049 10.1685C260.102 10.1376 260.166 10.1292 260.225 10.1451C260.285 10.161 260.336 10.2 260.367 10.2534C260.398 10.3069 260.406 10.3704 260.39 10.4301C259.56 14.5401 255.55 33.5401 254.53 39.5201C254.22 41.2401 254.88 41.3201 254.66 42.5201C254.44 43.7201 253.66 43.7301 253.33 45.2501C253.07 46.3001 252.4 50.1401 252.4 50.1401C251.95 52.2201 249.53 51.4801 249.92 50.1201Z" fill="#787878"/>
</g>
<g style="mix-blend-mode:multiply" opacity="0.83">
<path d="M249.92 50.12L251.46 44.12C251.8 42.83 251.29 42.5 251.46 41.73C251.63 40.96 252.28 40.84 252.6 39.61C252.6 39.61 258.84 14.45 259.94 10.32C259.962 10.2685 260.001 10.2267 260.051 10.2022C260.101 10.1777 260.159 10.1724 260.213 10.1871C260.266 10.2018 260.313 10.2355 260.344 10.282C260.375 10.3286 260.388 10.3847 260.38 10.44C259.54 14.62 255.55 33.44 254.51 39.54C254.2 41.26 254.87 41.34 254.64 42.54C254.41 43.74 253.64 43.75 253.31 45.26C253.05 46.34 252.38 50.16 252.38 50.16C251.94 52.21 249.53 51.47 249.92 50.12Z" fill="#767676"/>
</g>
<g style="mix-blend-mode:multiply" opacity="0.85">
<path d="M249.91 50.13L251.46 44.13C251.81 42.84 251.3 42.52 251.46 41.75C251.62 40.98 252.27 40.87 252.59 39.65C252.59 39.65 258.81 14.54 259.93 10.35C259.945 10.293 259.981 10.2441 260.032 10.2141C260.082 10.1841 260.143 10.1754 260.2 10.19C260.257 10.2046 260.306 10.2413 260.336 10.2919C260.366 10.3425 260.375 10.403 260.36 10.46C259.5 14.71 255.54 33.4 254.48 39.57C254.17 41.3 254.84 41.36 254.62 42.57C254.4 43.78 253.62 43.78 253.28 45.29C253.02 46.39 252.35 50.2 252.35 50.2C251.92 52.2 249.53 51.46 249.91 50.13Z" fill="#747474"/>
</g>
<g style="mix-blend-mode:multiply" opacity="0.86">
<path d="M249.91 50.13L251.46 44.13C251.81 42.85 251.3 42.5301 251.46 41.7701C251.62 41.0101 252.26 40.89 252.58 39.68C252.58 39.68 258.79 14.62 259.92 10.36C259.935 10.303 259.971 10.2541 260.022 10.2241C260.073 10.1941 260.133 10.1855 260.19 10.2C260.247 10.2146 260.296 10.2513 260.326 10.3019C260.356 10.3525 260.365 10.413 260.35 10.47C259.48 14.79 255.54 33.3201 254.46 39.5901C254.16 41.3201 254.82 41.3801 254.6 42.5901C254.38 43.8001 253.6 43.8 253.27 45.31C253 46.42 252.34 50.22 252.34 50.22C251.91 52.19 249.53 51.45 249.91 50.13Z" fill="#727272"/>
</g>
<g style="mix-blend-mode:multiply" opacity="0.87">
<path d="M249.9 50.1401L251.46 44.1401C251.81 42.8601 251.3 42.5401 251.46 41.7801C251.62 41.0201 252.26 40.9101 252.58 39.7001C252.58 39.7001 258.77 14.7001 259.92 10.3801C259.941 10.3337 259.978 10.2961 260.024 10.2737C260.069 10.2513 260.122 10.2455 260.171 10.2573C260.221 10.2691 260.265 10.2978 260.296 10.3384C260.326 10.3791 260.342 10.4291 260.34 10.48C259.45 14.87 255.54 33.2401 254.45 39.6101C254.14 41.3501 254.8 41.3901 254.58 42.6101C254.36 43.8301 253.58 43.8101 253.25 45.3201C252.98 46.4501 252.32 50.2401 252.32 50.2401C251.89 52.1701 249.53 51.4501 249.9 50.1401Z" fill="#6F6F6F"/>
</g>
<g style="mix-blend-mode:multiply" opacity="0.88">
<path d="M249.9 50.1501L251.46 44.0801C251.81 42.8101 251.3 42.4801 251.46 41.7401C251.62 41.0001 252.26 40.8701 252.57 39.6701C252.57 39.6701 258.75 14.7201 259.91 10.3301C259.97 10.0901 260.38 10.1801 260.32 10.4301C259.42 14.8901 255.54 33.1001 254.43 39.5701C254.12 41.3101 254.79 41.3501 254.57 42.5701C254.35 43.7901 253.57 43.7801 253.24 45.2901C252.96 46.4301 252.31 50.2101 252.31 50.2101C251.88 52.1601 249.53 51.4401 249.9 50.1501Z" fill="#6D6D6D"/>
</g>
<g style="mix-blend-mode:multiply" opacity="0.89">
<path d="M249.9 50.1502L251.46 44.0601C251.81 42.7901 251.31 42.4701 251.46 41.7301C251.61 40.9901 252.25 40.8801 252.57 39.6701C252.57 39.6701 258.73 14.7801 259.91 10.3201C259.97 10.1001 260.36 10.1801 260.31 10.4201C259.4 14.9401 255.54 33.0001 254.41 39.5701C254.1 41.3101 254.77 41.3501 254.55 42.5701C254.33 43.7901 253.55 43.7802 253.22 45.2802C252.94 46.4502 252.29 50.2102 252.29 50.2102C251.86 52.1502 249.53 51.4302 249.9 50.1502Z" fill="#6B6B6B"/>
</g>
<g style="mix-blend-mode:multiply" opacity="0.91">
<path d="M249.89 50.1601L251.47 44.0501C251.81 42.7801 251.31 42.4601 251.47 41.7301C251.63 41.0001 252.26 40.8801 252.57 39.6801C252.57 39.6801 258.72 14.8401 259.91 10.3201C259.97 10.1001 260.36 10.1901 260.31 10.4101C259.38 15.0001 255.55 32.9001 254.4 39.5701C254.1 41.3201 254.76 41.3401 254.54 42.5201C254.32 43.7001 253.54 43.7301 253.21 45.2401C252.93 46.4201 252.28 50.1701 252.28 50.1701C251.85 52.1401 249.53 51.4201 249.89 50.1601Z" fill="#696969"/>
</g>
<g style="mix-blend-mode:multiply" opacity="0.92">
<path d="M249.89 50.1601L251.48 44.0001C251.82 42.7401 251.32 42.4201 251.48 41.6901C251.64 40.9601 252.27 40.8501 252.58 39.6901C252.58 39.6901 258.71 14.9201 259.92 10.3201C259.98 10.1101 260.35 10.2001 260.31 10.4201C259.31 15.0701 255.56 32.8101 254.4 39.5701C254.09 41.3301 254.75 41.3501 254.54 42.5701C254.33 43.7901 253.54 43.7801 253.21 45.2801C252.91 46.4801 252.28 50.2201 252.28 50.2201C251.83 52.1301 249.53 51.4101 249.89 50.1601Z" fill="#666666"/>
</g>
<g style="mix-blend-mode:multiply" opacity="0.93">
<path d="M249.89 50.17L251.48 44C251.82 42.74 251.33 42.42 251.48 41.7C251.63 40.98 252.26 40.87 252.58 39.7C252.58 39.7 258.69 14.98 259.92 10.31C259.92 10.11 260.34 10.2 260.3 10.41C259.3 15.13 255.56 32.71 254.38 39.57C254.07 41.33 254.74 41.35 254.52 42.57C254.3 43.79 253.52 43.77 253.19 45.28C252.89 46.49 252.26 50.22 252.26 50.22C251.82 52.12 249.54 51.41 249.89 50.17Z" fill="#646464"/>
</g>
<g style="mix-blend-mode:multiply" opacity="0.94">
<path d="M249.88 50.18L251.48 44C251.82 42.74 251.33 42.4201 251.48 41.7101C251.63 41.0001 252.25 40.8801 252.56 39.7101C252.56 39.7101 258.66 15.05 259.9 10.32C259.95 10.12 260.32 10.22 260.28 10.41C259.28 15.2 255.55 32.6201 254.35 39.5801C254.04 41.3501 254.71 41.3501 254.49 42.5801C254.27 43.8101 253.49 43.79 253.16 45.29C252.86 46.53 252.23 50.24 252.23 50.24C251.8 52.1 249.54 51.4 249.88 50.18Z" fill="#626262"/>
</g>
<g style="mix-blend-mode:multiply" opacity="0.95">
<path d="M249.88 50.18L251.48 44C251.82 42.75 251.33 42.43 251.48 41.72C251.63 41.01 252.25 40.9 252.56 39.72C252.56 39.72 258.65 15.11 259.9 10.31C259.95 10.12 260.3 10.22 260.27 10.4C259.27 15.25 255.55 32.52 254.33 39.58C254.03 41.35 254.69 41.35 254.48 42.58C254.27 43.81 253.48 43.79 253.15 45.29C252.84 46.54 252.22 50.23 252.22 50.23C251.78 52.09 249.54 51.39 249.88 50.18Z" fill="#606060"/>
</g>
<g style="mix-blend-mode:multiply" opacity="0.96">
<path d="M249.87 50.1901L251.48 44.0001C251.82 42.7601 251.34 42.4401 251.48 41.7401C251.62 41.0401 252.24 40.9201 252.55 39.7401C252.55 39.7401 258.63 15.1801 259.89 10.3201C259.94 10.1301 260.29 10.2301 260.26 10.4001C259.26 15.3201 255.55 32.4001 254.32 39.5901C254.01 41.3701 254.67 41.3501 254.46 42.5301C254.25 43.7101 253.46 43.7401 253.13 45.2401C252.82 46.5101 252.2 50.1901 252.2 50.1901C251.77 52.0801 249.54 51.3801 249.87 50.1901Z" fill="#5E5E5E"/>
</g>
<g style="mix-blend-mode:multiply" opacity="0.98">
<path d="M249.87 50.2001L251.47 43.9401C251.81 42.7001 251.33 42.3801 251.47 41.6901C251.61 41.0001 252.23 40.8801 252.54 39.6901C252.54 39.6901 258.6 15.1901 259.88 10.2601C259.88 10.0801 260.27 10.1901 260.24 10.3401C259.24 15.3401 255.54 32.2901 254.29 39.5401C253.98 41.3201 254.64 41.3001 254.43 42.4801C254.22 43.6601 253.43 43.6901 253.1 45.1901C252.79 46.4701 252.17 50.1401 252.17 50.1401C251.75 52.0701 249.54 51.3701 249.87 50.2001Z" fill="#5B5B5B"/>
</g>
<g style="mix-blend-mode:multiply" opacity="0.99">
<path d="M249.87 50.2L251.48 43.93C251.81 42.69 251.33 42.37 251.48 41.69C251.63 41.01 252.24 40.89 252.54 39.69C252.54 39.69 258.6 15.25 259.89 10.24C259.89 10.07 260.26 10.18 260.23 10.32C259.23 15.38 255.55 32.18 254.23 39.53C253.92 41.31 254.59 41.2899 254.38 42.4699C254.17 43.6499 253.38 43.67 253.05 45.17C252.73 46.47 252.12 50.17 252.12 50.17C251.74 52.06 249.54 51.36 249.87 50.2Z" fill="#595959"/>
</g>
<g style="mix-blend-mode:multiply" opacity="0.9">
<path d="M249.86 50.2101L251.48 43.91C251.81 42.68 251.33 42.3601 251.48 41.6801C251.63 41.0001 252.23 40.8901 252.54 39.6801C252.54 39.6801 258.54 15.3001 259.88 10.2301C259.88 10.0701 260.25 10.1701 260.22 10.3001C259.15 15.4301 255.55 32.0701 254.22 39.5201C253.92 41.3101 254.58 41.2701 254.37 42.4501C254.16 43.6301 253.37 43.66 253.04 45.16C252.72 46.48 252.11 50.16 252.11 50.16C251.72 52.05 249.54 51.3601 249.86 50.2101Z" fill="#575757"/>
</g>
</g>
<path d="M252.68 43.89C253.608 43.89 254.36 43.1379 254.36 42.21C254.36 41.2822 253.608 40.53 252.68 40.53C251.752 40.53 251 41.2822 251 42.21C251 43.1379 251.752 43.89 252.68 43.89Z" fill="url(#paint5_radial_1487_110747)"/>
<path d="M254.48 42.61C254.571 42.2591 254.571 41.8909 254.48 41.54C254.282 40.8543 254.247 40.1315 254.38 39.43L260.38 10.14C260.384 10.0591 260.359 9.97936 260.31 9.91519C260.26 9.85102 260.189 9.80659 260.11 9.79001C260.028 9.76265 259.938 9.76697 259.858 9.80209C259.779 9.83721 259.715 9.90061 259.68 9.98001L252.41 38.98C252.229 39.6704 251.886 40.3079 251.41 40.8401C251.171 41.11 251.005 41.4372 250.93 41.79C250.845 42.1348 250.845 42.4952 250.93 42.8401C251.12 43.5373 251.12 44.2727 250.93 44.97L249.72 49.5901C249.715 49.6199 249.715 49.6502 249.72 49.68C249.667 49.8546 249.649 50.0382 249.669 50.2197C249.688 50.4012 249.744 50.577 249.832 50.7366C249.921 50.8962 250.041 51.0363 250.185 51.1485C250.329 51.2608 250.494 51.3429 250.67 51.39C251.039 51.4293 251.408 51.3208 251.696 51.0883C251.985 50.8559 252.17 50.5185 252.21 50.1501L253.12 45.46C253.25 44.7485 253.564 44.0833 254.03 43.5301C254.254 43.2652 254.408 42.9491 254.48 42.61V42.61Z" fill="url(#paint6_linear_1487_110747)"/>
<path style="mix-blend-mode:multiply" opacity="0.6" d="M254.48 42.61C254.571 42.2591 254.571 41.8909 254.48 41.54C254.282 40.8543 254.247 40.1315 254.38 39.43L260.38 10.14C260.384 10.0591 260.359 9.97936 260.31 9.91519C260.26 9.85102 260.189 9.80659 260.11 9.79001C260.028 9.76265 259.938 9.76697 259.858 9.80209C259.779 9.83721 259.715 9.90061 259.68 9.98001L252.41 38.98C252.229 39.6704 251.886 40.3079 251.41 40.8401C251.171 41.11 251.005 41.4372 250.93 41.79C250.845 42.1348 250.845 42.4952 250.93 42.8401C251.12 43.5373 251.12 44.2727 250.93 44.97L249.72 49.5901C249.715 49.6199 249.715 49.6502 249.72 49.68C249.667 49.8546 249.649 50.0382 249.669 50.2197C249.688 50.4012 249.744 50.577 249.832 50.7366C249.921 50.8962 250.041 51.0363 250.185 51.1485C250.329 51.2608 250.494 51.3429 250.67 51.39C251.039 51.4293 251.408 51.3208 251.696 51.0883C251.985 50.8559 252.17 50.5185 252.21 50.1501L253.12 45.46C253.25 44.7485 253.564 44.0833 254.03 43.5301C254.254 43.2652 254.408 42.9491 254.48 42.61V42.61Z" fill="url(#paint7_linear_1487_110747)"/>
<path d="M252.68 43.18C253.216 43.18 253.65 42.7457 253.65 42.21C253.65 41.6743 253.216 41.24 252.68 41.24C252.144 41.24 251.71 41.6743 251.71 42.21C251.71 42.7457 252.144 43.18 252.68 43.18Z" fill="url(#paint8_radial_1487_110747)"/>
<g style="mix-blend-mode:multiply">
<path d="M251.99 41.72C252.138 41.5254 252.351 41.3915 252.591 41.3436C252.83 41.2957 253.079 41.3371 253.29 41.46V41.46C253.082 41.3769 252.853 41.3659 252.638 41.4288C252.423 41.4917 252.235 41.6247 252.105 41.8068C251.975 41.9888 251.91 42.2093 251.92 42.4329C251.93 42.6565 252.014 42.8702 252.16 43.04H252.22C252.025 42.8874 251.894 42.668 251.851 42.4242C251.809 42.1804 251.858 41.9295 251.99 41.72V41.72Z" fill="#C2C2C2"/>
</g>
<path opacity="0.9" d="M290.87 33.65L285.4 34.94L285.46 35.24L290.98 34.2L290.87 33.65Z" fill="#ED1C24"/>
<path opacity="0.9" d="M289.43 28.71L284.77 30.44L284.81 30.55L289.5 28.91L289.43 28.71Z" fill="#ED1C24"/>
<path opacity="0.9" d="M287.2 23.6899L282.28 26.3999L282.43 26.6799L287.46 24.1799L287.2 23.6899Z" fill="#ED1C24"/>
<path opacity="0.9" d="M284.49 19.3199L280.46 22.2299L280.53 22.3299L284.61 19.4899L284.49 19.3199Z" fill="#ED1C24"/>
<path opacity="0.9" d="M280.99 15.09L276.98 19.02L277.2 19.25L281.37 15.49L280.99 15.09Z" fill="#ED1C24"/>
<path opacity="0.9" d="M272.7 8.46997L269.89 13.33L270.16 13.49L273.18 8.75997L272.7 8.46997Z" fill="#ED1C24"/>
<path opacity="0.9" d="M268.12 6.13L266.18 10.71L266.29 10.76L268.31 6.21L268.12 6.13Z" fill="#ED1C24"/>
<path opacity="0.9" d="M277.21 11.6L274.11 15.49L274.2 15.57L277.37 11.73L277.21 11.6Z" fill="#ED1C24"/>
<path opacity="0.9" d="M264.13 4.67004L262.94 8.64004L263.05 8.67004L264.31 4.72004L264.13 4.67004Z" fill="#ED1C24"/>
<path opacity="0.9" d="M265.14 4.98999L263.85 8.92999L263.95 8.96999L265.32 5.04999L265.14 4.98999Z" fill="#ED1C24"/>
<path opacity="0.9" d="M266.14 5.34998L264.75 9.24998L264.85 9.28998L266.33 5.40998L266.14 5.34998Z" fill="#ED1C24"/>
<path opacity="0.9" d="M267.14 5.72998L265.64 9.58998L265.74 9.62998L267.32 5.79998L267.14 5.72998Z" fill="#ED1C24"/>
<path opacity="0.9" d="M269.1 6.56995L267.38 10.3399L267.48 10.3899L269.27 6.64995L269.1 6.56995Z" fill="#ED1C24"/>
<path opacity="0.9" d="M270.06 7.03003L268.24 10.75L268.34 10.8L270.23 7.11003L270.06 7.03003Z" fill="#ED1C24"/>
<path opacity="0.9" d="M271 7.51001L269.09 11.19L269.18 11.24L271.17 7.60001L271 7.51001Z" fill="#ED1C24"/>
<path opacity="0.9" d="M270.02 11.7L272.1 8.12002L271.94 8.02002L269.92 11.65L270.02 11.7Z" fill="#ED1C24"/>
<path opacity="0.9" d="M273.76 9.12L271.55 12.63L271.64 12.69L273.92 9.22999L273.76 9.12Z" fill="#ED1C24"/>
<path opacity="0.9" d="M274.65 9.70996L272.35 13.15L272.43 13.22L274.81 9.81996L274.65 9.70996Z" fill="#ED1C24"/>
<path opacity="0.9" d="M275.52 10.3199L273.12 13.6999L273.21 13.7699L275.68 10.4299L275.52 10.3199Z" fill="#ED1C24"/>
<path opacity="0.9" d="M276.38 10.95L273.89 14.27L273.97 14.33L276.53 11.07L276.38 10.95Z" fill="#ED1C24"/>
<path opacity="0.9" d="M278.03 12.29L275.37 15.46L275.45 15.53L278.18 12.41L278.03 12.29Z" fill="#ED1C24"/>
<path opacity="0.9" d="M278.83 12.99L276.08 16.09L276.17 16.16L278.98 13.12L278.83 12.99Z" fill="#ED1C24"/>
<path opacity="0.9" d="M279.62 13.71L276.78 16.74L276.86 16.81L279.75 13.84L279.62 13.71Z" fill="#ED1C24"/>
<path opacity="0.9" d="M277.54 17.48L280.51 14.59L280.38 14.45L277.46 17.4L277.54 17.48Z" fill="#ED1C24"/>
<path opacity="0.9" d="M281.84 16L278.77 18.79L278.84 18.87L281.96 16.15L281.84 16Z" fill="#ED1C24"/>
<path opacity="0.9" d="M282.54 16.8101L279.39 19.5101L279.46 19.5901L282.66 16.9501L282.54 16.8101Z" fill="#ED1C24"/>
<path opacity="0.9" d="M283.21 17.63L279.99 20.24L280.06 20.33L283.33 17.78L283.21 17.63Z" fill="#ED1C24"/>
<path opacity="0.9" d="M280.64 21.08L283.98 18.62L283.87 18.47L280.58 20.99L280.64 21.08Z" fill="#ED1C24"/>
<path opacity="0.9" d="M285.1 20.2L281.68 22.54L281.74 22.6299L285.21 20.36L285.1 20.2Z" fill="#ED1C24"/>
<path opacity="0.9" d="M285.69 21.09L282.2 23.34L282.26 23.43L285.79 21.25L285.69 21.09Z" fill="#ED1C24"/>
<path opacity="0.9" d="M282.76 24.24L286.34 22.16L286.24 22L282.7 24.15L282.76 24.24Z" fill="#ED1C24"/>
<path opacity="0.9" d="M283.23 25.07L286.87 23.09L286.78 22.92L283.18 24.97L283.23 25.07Z" fill="#ED1C24"/>
<path opacity="0.9" d="M287.77 24.8L284.06 26.66L284.11 26.76L287.85 24.98L287.77 24.8Z" fill="#ED1C24"/>
<path opacity="0.9" d="M288.22 25.76L284.47 27.52L284.51 27.62L288.3 25.94L288.22 25.76Z" fill="#ED1C24"/>
<path opacity="0.9" d="M284.89 28.49L288.73 26.91L288.65 26.74L284.85 28.39L284.89 28.49Z" fill="#ED1C24"/>
<path opacity="0.9" d="M285.25 29.37L289.13 27.9L289.06 27.72L285.21 29.27L285.25 29.37Z" fill="#ED1C24"/>
<path opacity="0.9" d="M285.89 31.16L289.84 29.91L289.78 29.72L285.86 31.06L285.89 31.16Z" fill="#ED1C24"/>
<path opacity="0.9" d="M286.18 32.07L290.16 30.92L290.11 30.74L286.15 31.97L286.18 32.07Z" fill="#ED1C24"/>
<path opacity="0.9" d="M286.44 32.99L290.45 31.95L290.4 31.76L286.41 32.88L286.44 32.99Z" fill="#ED1C24"/>
<path opacity="0.9" d="M286.67 33.91L290.71 32.98L290.67 32.79L286.65 33.8L286.67 33.91Z" fill="#ED1C24"/>
<defs>
<linearGradient id="paint0_linear_1487_110747" x1="0" y1="24.67" x2="57.19" y2="24.67" gradientUnits="userSpaceOnUse">
<stop offset="0.26" stop-color="#ED1C24"/>
<stop offset="0.77" stop-color="#700D11"/>
<stop offset="1" stop-color="#3B0709"/>
</linearGradient>
<linearGradient id="paint1_linear_1487_110747" x1="298.34" y1="21.81" x2="356.86" y2="21.81" gradientUnits="userSpaceOnUse">
<stop offset="0.03" stop-color="#ED1C24"/>
<stop offset="0.69" stop-color="#700D11"/>
<stop offset="1" stop-color="#3B0709"/>
</linearGradient>
<linearGradient id="paint2_linear_1487_110747" x1="252.79" y1="48.88" x2="252.79" y2="34.41" gradientUnits="userSpaceOnUse">
<stop stop-color="#959595"/>
<stop offset="0.21" stop-color="#AAAAAA"/>
<stop offset="0.48" stop-color="#C0C0C0"/>
<stop offset="0.75" stop-color="#CDCDCD"/>
<stop offset="1" stop-color="#D1D1D1"/>
</linearGradient>
<radialGradient id="paint3_radial_1487_110747" cx="0" cy="0" r="1" gradientUnits="userSpaceOnUse" gradientTransform="translate(252.72 43.29) scale(5.46001)">
<stop offset="0.16" stop-color="#E9E9E9"/>
<stop offset="0.39" stop-color="#E6E6E6"/>
<stop offset="0.56" stop-color="#DCDCDC"/>
<stop offset="0.72" stop-color="#CBCBCB"/>
<stop offset="0.87" stop-color="#B4B4B4"/>
<stop offset="1" stop-color="#9A9A9A"/>
</radialGradient>
<radialGradient id="paint4_radial_1487_110747" cx="0" cy="0" r="1" gradientUnits="userSpaceOnUse" gradientTransform="translate(239.03 42.28) scale(25.88)">
<stop offset="0.85" stop-color="#2E2E2E"/>
<stop offset="0.88" stop-color="#4A4A4A"/>
<stop offset="0.9" stop-color="#636363"/>
<stop offset="0.93" stop-color="#767676"/>
<stop offset="0.96" stop-color="#808080"/>
<stop offset="1" stop-color="#848484"/>
</radialGradient>
<radialGradient id="paint5_radial_1487_110747" cx="0" cy="0" r="1" gradientUnits="userSpaceOnUse" gradientTransform="translate(250.107 44.5239) rotate(-54.3955) scale(1.67369)">
<stop offset="0.32" stop-color="#9C0000"/>
<stop offset="0.65" stop-color="#9A0000"/>
<stop offset="0.77" stop-color="#930000"/>
<stop offset="0.85" stop-color="#880000"/>
<stop offset="0.92" stop-color="#770000"/>
<stop offset="0.98" stop-color="#610000"/>
<stop offset="1" stop-color="#590000"/>
</radialGradient>
<linearGradient id="paint6_linear_1487_110747" x1="256.905" y1="7.57081" x2="248.868" y2="43.0049" gradientUnits="userSpaceOnUse">
<stop stop-color="#E53B3B"/>
<stop offset="0.03" stop-color="#E22121"/>
<stop offset="0.05" stop-color="#E00F0F"/>
<stop offset="0.08" stop-color="#DE0404"/>
<stop offset="0.11" stop-color="#DE0000"/>
<stop offset="0.46" stop-color="#DC0000"/>
<stop offset="0.65" stop-color="#D40000"/>
<stop offset="0.79" stop-color="#C60000"/>
<stop offset="0.92" stop-color="#B30000"/>
<stop offset="1" stop-color="#A20000"/>
</linearGradient>
<linearGradient id="paint7_linear_1487_110747" x1="250.899" y1="32.5384" x2="253.827" y2="33.1892" gradientUnits="userSpaceOnUse">
<stop offset="0.63" stop-color="white"/>
<stop offset="0.65" stop-color="#F2E4E4"/>
<stop offset="0.71" stop-color="#D19E9E"/>
<stop offset="0.79" stop-color="#9C2F2F"/>
<stop offset="0.82" stop-color="#860000"/>
</linearGradient>
<radialGradient id="paint8_radial_1487_110747" cx="0" cy="0" r="1" gradientUnits="userSpaceOnUse" gradientTransform="translate(250.497 44.7664) rotate(-54.3956) scale(1.19549)">
<stop offset="0.45" stop-color="#EBEBEB"/>
<stop offset="0.58" stop-color="#E8E8E8"/>
<stop offset="0.68" stop-color="#DEDEDE"/>
<stop offset="0.77" stop-color="#CDCDCD"/>
<stop offset="0.86" stop-color="#B6B6B6"/>
<stop offset="0.94" stop-color="#989898"/>
<stop offset="1" stop-color="#7A7A7A"/>
</radialGradient>
</defs>
</svg>
