<svg width="21" height="17" viewBox="0 0 21 17" fill="none" xmlns="http://www.w3.org/2000/svg">
<path fill-rule="evenodd" clip-rule="evenodd" d="M0.0650477 3.19995C0.0650477 1.5431 1.40819 0.199951 3.06505 0.199951H17.065C18.7219 0.199951 20.065 1.5431 20.065 3.19995V4.18443C20.0652 4.19417 20.0652 4.2039 20.065 4.21363V13.2C20.065 14.8568 18.7219 16.2 17.065 16.2H3.06505C1.40819 16.2 0.0650477 14.8568 0.0650477 13.2V4.21362C0.0649061 4.2039 0.0649059 4.19417 0.0650477 4.18444V3.19995ZM2.06505 6.06847V13.2C2.06505 13.7522 2.51276 14.2 3.06505 14.2H17.065C17.6173 14.2 18.065 13.7522 18.065 13.2V6.06847L11.7291 10.2924C10.7214 10.9642 9.40865 10.9642 8.40095 10.2924L2.06505 6.06847ZM18.065 3.66477L10.6197 8.6283C10.2838 8.85223 9.84625 8.85223 9.51035 8.6283L2.06505 3.66477V3.19995C2.06505 2.64767 2.51276 2.19995 3.06505 2.19995H17.065C17.6173 2.19995 18.065 2.64767 18.065 3.19995V3.66477Z" fill="#787878"/>
</svg>
