<svg width="22" height="24" viewBox="0 0 22 24" fill="none" xmlns="http://www.w3.org/2000/svg">
<path fill-rule="evenodd" clip-rule="evenodd" d="M7.52155 3.69582C7.71579 1.94666 9.19905 0.586426 11 0.586426C12.801 0.586426 14.2842 1.94667 14.4785 3.69582C17.248 5.00155 19.1667 7.81865 19.1667 11.0864V14.7713C19.1667 15.0905 19.2935 15.3967 19.5192 15.6224L21.1583 17.2615C21.492 17.5951 21.5918 18.0969 21.4112 18.5329C21.2306 18.9688 20.8052 19.2531 20.3333 19.2531L15.6667 19.2531C15.6667 21.8304 13.5773 23.9198 11 23.9198C8.42268 23.9198 6.33334 21.8304 6.33334 19.2531L1.66667 19.2531C1.1948 19.2531 0.769389 18.9688 0.588811 18.5329C0.408233 18.0969 0.508048 17.5951 0.841712 17.2615L2.4808 15.6224C2.70653 15.3967 2.83334 15.0905 2.83334 14.7713V11.0864C2.83334 7.81865 4.75205 5.00154 7.52155 3.69582ZM8.66667 19.2531C8.66667 20.5418 9.71134 21.5864 11 21.5864C12.2887 21.5864 13.3333 20.5418 13.3333 19.2531H8.66667ZM11 2.91976C10.3557 2.91976 9.83334 3.44209 9.83334 4.08643V4.48474C9.83334 4.9792 9.52165 5.41995 9.05546 5.58472C6.78823 6.38607 5.16667 8.54838 5.16667 11.0864V14.7713C5.16667 15.5521 4.90848 16.3063 4.43938 16.9198H17.5606C17.0915 16.3063 16.8333 15.5521 16.8333 14.7713V11.0864C16.8333 8.54838 15.2118 6.38607 12.9445 5.58472C12.4784 5.41995 12.1667 4.9792 12.1667 4.48474V4.08643C12.1667 3.44209 11.6443 2.91976 11 2.91976Z" fill="#111827"/>
</svg>
