<svg width="22" height="19" viewBox="0 0 22 19" fill="none" xmlns="http://www.w3.org/2000/svg">
<path fill-rule="evenodd" clip-rule="evenodd" d="M11 2.75293C9.89543 2.75293 9 3.64836 9 4.75293C9 5.8575 9.89543 6.75293 11 6.75293C12.1046 6.75293 13 5.8575 13 4.75293C13 3.64836 12.1046 2.75293 11 2.75293ZM7 4.75293C7 2.54379 8.79086 0.75293 11 0.75293C13.2091 0.75293 15 2.54379 15 4.75293C15 6.96207 13.2091 8.75293 11 8.75293C8.79086 8.75293 7 6.96207 7 4.75293ZM4 6.75293C3.44772 6.75293 3 7.20064 3 7.75293C3 8.30521 3.44772 8.75293 4 8.75293C4.55228 8.75293 5 8.30521 5 7.75293C5 7.20064 4.55228 6.75293 4 6.75293ZM1 7.75293C1 6.09608 2.34315 4.75293 4 4.75293C5.65685 4.75293 7 6.09608 7 7.75293C7 9.40978 5.65685 10.7529 4 10.7529C2.34315 10.7529 1 9.40978 1 7.75293ZM18 6.75293C17.4477 6.75293 17 7.20064 17 7.75293C17 8.30521 17.4477 8.75293 18 8.75293C18.5523 8.75293 19 8.30521 19 7.75293C19 7.20064 18.5523 6.75293 18 6.75293ZM15 7.75293C15 6.09608 16.3431 4.75293 18 4.75293C19.6569 4.75293 21 6.09608 21 7.75293C21 9.40978 19.6569 10.7529 18 10.7529C16.3431 10.7529 15 9.40978 15 7.75293ZM11 11.7529C9.31743 11.7529 7.87516 12.7921 7.28463 14.2674C7.10133 14.7254 7 15.2261 7 15.7529V16.7529H15V15.7529C15 15.2261 14.8987 14.7254 14.7154 14.2674C14.1248 12.7921 12.6826 11.7529 11 11.7529ZM17 16.7529H20V15.7529C20 14.6484 19.1046 13.7529 18 13.7529C17.5439 13.7529 17.1237 13.905 16.7867 14.1627C16.9259 14.6699 17 15.2034 17 15.7529V16.7529ZM15.9286 12.3306C14.8455 10.7735 13.0427 9.75293 11 9.75293C8.9573 9.75293 7.15455 10.7735 6.07138 12.3306C5.46741 11.9643 4.75829 11.7529 4 11.7529C1.79086 11.7529 0 13.5438 0 15.7529V17.7529C0 18.3052 0.447715 18.7529 1 18.7529H21C21.5523 18.7529 22 18.3052 22 17.7529V15.7529C22 13.5438 20.2091 11.7529 18 11.7529C17.2417 11.7529 16.5326 11.9643 15.9286 12.3306ZM5.21328 14.1627C4.87632 13.905 4.45607 13.7529 4 13.7529C2.89543 13.7529 2 14.6484 2 15.7529V16.7529H5V15.7529C5 15.2034 5.07414 14.6699 5.21328 14.1627Z" fill="#787878"/>
</svg>
