<svg width="68" height="85" viewBox="0 0 68 85" fill="none" xmlns="http://www.w3.org/2000/svg">
<path fill-rule="evenodd" clip-rule="evenodd" d="M18.0446 9.16683C19.7605 4.31186 24.3907 0.833496 29.8333 0.833496H38.1666C43.6092 0.833496 48.2394 4.31186 49.9553 9.16683H54.8333C61.7368 9.16683 67.3333 14.7633 67.3333 21.6668V71.6668C67.3333 78.5704 61.7368 84.1668 54.8333 84.1668H13.1666C6.26307 84.1668 0.666626 78.5704 0.666626 71.6668V21.6668C0.666626 14.7633 6.26307 9.16683 13.1666 9.16683H18.0446ZM18.0446 17.5002H13.1666C10.8654 17.5002 8.99996 19.3656 8.99996 21.6668V71.6668C8.99996 73.968 10.8654 75.8335 13.1666 75.8335H54.8333C57.1345 75.8335 59 73.968 59 71.6668V21.6668C59 19.3656 57.1345 17.5002 54.8333 17.5002H49.9553C48.2394 22.3551 43.6092 25.8335 38.1666 25.8335H29.8333C24.3907 25.8335 19.7605 22.3551 18.0446 17.5002ZM29.8333 9.16683C27.5321 9.16683 25.6666 11.0323 25.6666 13.3335C25.6666 15.6347 27.5321 17.5002 29.8333 17.5002H38.1666C40.4678 17.5002 42.3333 15.6347 42.3333 13.3335C42.3333 11.0323 40.4678 9.16683 38.1666 9.16683H29.8333Z" fill="#ED1C24"/>
<path fill-rule="evenodd" clip-rule="evenodd" d="M22.7203 39.5539C24.3475 37.9267 26.9857 37.9267 28.6129 39.5539L34 44.9409L39.387 39.5539C41.0142 37.9267 43.6524 37.9267 45.2796 39.5539C46.9067 41.1811 46.9067 43.8193 45.2796 45.4464L39.8925 50.8335L45.2796 56.2206C46.9067 57.8477 46.9067 60.4859 45.2796 62.1131C43.6524 63.7403 41.0142 63.7403 39.387 62.1131L34 56.7261L28.6129 62.1131C26.9857 63.7403 24.3475 63.7403 22.7203 62.1131C21.0932 60.4859 21.0932 57.8477 22.7203 56.2206L28.1074 50.8335L22.7203 45.4464C21.0932 43.8193 21.0932 41.1811 22.7203 39.5539Z" fill="#ED1C24"/>
</svg>
