<svg width="16" height="21" viewBox="0 0 16 21" fill="none" xmlns="http://www.w3.org/2000/svg">
<path fill-rule="evenodd" clip-rule="evenodd" d="M3 2.75293C2.44772 2.75293 2 3.20064 2 3.75293V17.7529C2 18.3052 2.44772 18.7529 3 18.7529H13C13.5523 18.7529 14 18.3052 14 17.7529L14 8.16714L8.58579 2.75293H3ZM0 3.75293C0 2.09608 1.34315 0.75293 3 0.75293H8.58579C9.11622 0.75293 9.62493 0.963643 10 1.33872L15.4142 6.75293C15.7893 7.128 16 7.63671 16 8.16714V17.7529C16 19.4098 14.6569 20.7529 13 20.7529H3C1.34315 20.7529 0 19.4098 0 17.7529V3.75293ZM11 8.75293C11.5523 8.75293 12 9.20065 12 9.75293V15.7529C12 16.3052 11.5523 16.7529 11 16.7529C10.4477 16.7529 10 16.3052 10 15.7529V9.75293C10 9.20065 10.4477 8.75293 11 8.75293ZM8 10.7529C8.55228 10.7529 9 11.2006 9 11.7529V15.7529C9 16.3052 8.55228 16.7529 8 16.7529C7.44772 16.7529 7 16.3052 7 15.7529V11.7529C7 11.2006 7.44772 10.7529 8 10.7529ZM5 12.7529C5.55228 12.7529 6 13.2006 6 13.7529V15.7529C6 16.3052 5.55228 16.7529 5 16.7529C4.44772 16.7529 4 16.3052 4 15.7529V13.7529C4 13.2006 4.44772 12.7529 5 12.7529Z" fill="#787878"/>
</svg>
