<svg width="20" height="21" viewBox="0 0 20 21" fill="none" xmlns="http://www.w3.org/2000/svg">
<path fill-rule="evenodd" clip-rule="evenodd" d="M0 1.75293C0 1.20064 0.447715 0.75293 1 0.75293H3C3.47668 0.75293 3.8871 1.08939 3.98058 1.55681L4.2198 2.75293H19C19.3466 2.75293 19.6684 2.93238 19.8507 3.2272C20.0329 3.52202 20.0494 3.89015 19.8944 4.20014L15.8944 12.2001C15.725 12.5389 15.3788 12.7529 15 12.7529H5.41421L3.41421 14.7529L15 14.7529C16.6569 14.7529 18 16.0961 18 17.7529C18 19.4098 16.6569 20.7529 15 20.7529C13.3431 20.7529 12 19.4098 12 17.7529C12 17.4023 12.0602 17.0657 12.1707 16.7529H7.82929C7.93985 17.0657 8 17.4023 8 17.7529C8 19.4098 6.65685 20.7529 5 20.7529C3.34315 20.7529 2 19.4098 2 17.7529C2 17.2768 2.11092 16.8266 2.30832 16.4267C1.3292 15.7763 1.04054 14.2982 2 13.3387L3.91446 11.4243L2.1802 2.75293H1C0.447715 2.75293 0 2.30521 0 1.75293ZM5.8198 10.7529H14.382L17.382 4.75293H4.6198L5.8198 10.7529ZM5 16.7529C4.44772 16.7529 4 17.2006 4 17.7529C4 18.3052 4.44772 18.7529 5 18.7529C5.55228 18.7529 6 18.3052 6 17.7529C6 17.2006 5.55228 16.7529 5 16.7529ZM15 16.7529C14.4477 16.7529 14 17.2006 14 17.7529C14 18.3052 14.4477 18.7529 15 18.7529C15.5523 18.7529 16 18.3052 16 17.7529C16 17.2006 15.5523 16.7529 15 16.7529Z" fill="#787878"/>
</svg>
