<svg width="20" height="21" viewBox="0 0 20 21" fill="none" xmlns="http://www.w3.org/2000/svg">
<path fill-rule="evenodd" clip-rule="evenodd" d="M5.92925 1.02553C6.46271 0.882592 7.01105 1.19917 7.15399 1.73264L7.93045 4.63042C8.07339 5.16388 7.75681 5.71222 7.22334 5.85516C6.68987 5.9981 6.14154 5.68152 5.9986 5.14806L5.22214 2.25028C5.0792 1.71681 5.39578 1.16848 5.92925 1.02553ZM13.6566 3.09612C14.0472 3.48664 14.0472 4.11981 13.6566 4.51033L11.5353 6.63165C11.1448 7.02218 10.5116 7.02218 10.1211 6.63165C9.73059 6.24113 9.73059 5.60796 10.1211 5.21744L12.2424 3.09612C12.633 2.7056 13.2661 2.7056 13.6566 3.09612ZM0.272359 6.68238C0.415301 6.14891 0.963638 5.83233 1.4971 5.97527L4.39488 6.75173C4.92835 6.89467 5.24493 7.44301 5.10199 7.97647C4.95905 8.50994 4.41071 8.82652 3.87724 8.68358L0.979466 7.90712C0.446 7.76418 0.129418 7.21585 0.272359 6.68238ZM7.29273 8.04583C7.56745 7.7711 7.97644 7.68037 8.34158 7.81314L19.3416 11.8131C19.7313 11.9549 19.9931 12.3224 19.9997 12.7371C20.0063 13.1517 19.7563 13.5274 19.3712 13.6814L15.7793 15.1182L19.7069 19.0458C20.0975 19.4364 20.0975 20.0695 19.7069 20.46C19.3164 20.8506 18.6833 20.8506 18.2927 20.46L14.3651 16.5324L12.9283 20.1243C12.7743 20.5094 12.3986 20.7594 11.984 20.7528C11.5693 20.7462 11.2018 20.4844 11.06 20.0947L7.06004 9.09468C6.92726 8.72954 7.018 8.32056 7.29273 8.04583ZM9.67193 10.425L12.0443 16.9491L13.0714 14.3815C13.173 14.1274 13.3743 13.9261 13.6284 13.8245L16.196 12.7974L9.67193 10.425ZM5.87857 10.8742C6.26909 11.2647 6.26909 11.8979 5.87857 12.2884L3.75725 14.4097C3.36673 14.8003 2.73356 14.8003 2.34304 14.4097C1.95251 14.0192 1.95251 13.386 2.34304 12.9955L4.46436 10.8742C4.85488 10.4837 5.48805 10.4837 5.87857 10.8742Z" fill="#787878"/>
</svg>
