<svg width="20" height="21" viewBox="0 0 20 21" fill="none" xmlns="http://www.w3.org/2000/svg">
<path fill-rule="evenodd" clip-rule="evenodd" d="M3.68014 5.84729C2.62708 7.20197 2 8.90422 2 10.7529C2 12.6016 2.62708 14.3039 3.68014 15.6586L5.8284 13.5103C5.30488 12.7199 5 11.772 5 10.7529C5 9.73385 5.30488 8.78597 5.8284 7.99554L3.68014 5.84729ZM5.09436 4.43307L7.24261 6.58133C8.03304 6.05781 8.98092 5.75293 10 5.75293C11.0191 5.75293 11.967 6.05781 12.7574 6.58133L14.9056 4.43307C13.551 3.38001 11.8487 2.75293 10 2.75293C8.15129 2.75293 6.44904 3.38001 5.09436 4.43307ZM16.3199 5.84729L14.1716 7.99554C14.6951 8.78597 15 9.73385 15 10.7529C15 11.772 14.6951 12.7199 14.1716 13.5103L16.3199 15.6586C17.3729 14.3039 18 12.6016 18 10.7529C18 8.90422 17.3729 7.20197 16.3199 5.84729ZM14.9056 17.0728L12.7574 14.9245C11.967 15.4481 11.0191 15.7529 10 15.7529C8.98092 15.7529 8.03304 15.4481 7.24261 14.9245L5.09436 17.0728C6.44904 18.1259 8.15129 18.7529 10 18.7529C11.8487 18.7529 13.551 18.1259 14.9056 17.0728ZM0 10.7529C0 5.23008 4.47715 0.75293 10 0.75293C15.5228 0.75293 20 5.23008 20 10.7529C20 16.2758 15.5228 20.7529 10 20.7529C4.47715 20.7529 0 16.2758 0 10.7529ZM7 10.7529C7 12.4098 8.34315 13.7529 10 13.7529C11.6569 13.7529 13 12.4098 13 10.7529C13 9.09608 11.6569 7.75293 10 7.75293C8.34315 7.75293 7 9.09608 7 10.7529Z" fill="#787878"/>
</svg>
