<svg width="28" height="22" viewBox="0 0 28 22" fill="none" xmlns="http://www.w3.org/2000/svg">
<path fill-rule="evenodd" clip-rule="evenodd" d="M0.5 2.25293C0.5 1.4245 1.17157 0.75293 2 0.75293H26C26.8284 0.75293 27.5 1.4245 27.5 2.25293C27.5 3.08136 26.8284 3.75293 26 3.75293H2C1.17157 3.75293 0.5 3.08136 0.5 2.25293ZM0.5 11.2529C0.5 10.4245 1.17157 9.75293 2 9.75293H14C14.8284 9.75293 15.5 10.4245 15.5 11.2529C15.5 12.0814 14.8284 12.7529 14 12.7529H2C1.17157 12.7529 0.5 12.0814 0.5 11.2529ZM0.5 20.2529C0.5 19.4245 1.17157 18.7529 2 18.7529H26C26.8284 18.7529 27.5 19.4245 27.5 20.2529C27.5 21.0814 26.8284 21.7529 26 21.7529H2C1.17157 21.7529 0.5 21.0814 0.5 20.2529Z" fill="#1C1C1C"/>
</svg>
