<svg width="24" height="24" viewBox="0 0 24 24" fill="none" xmlns="http://www.w3.org/2000/svg">
<path fill-rule="evenodd" clip-rule="evenodd" d="M12 2.91976C6.84534 2.91976 2.66666 7.09843 2.66666 12.2531C2.66666 14.2127 3.27059 16.0313 4.30247 17.5328C6.62646 16.3929 9.23989 15.7531 12 15.7531C14.7601 15.7531 17.3735 16.3929 19.6975 17.5328C20.7294 16.0313 21.3333 14.2127 21.3333 12.2531C21.3333 7.09843 17.1547 2.91976 12 2.91976ZM20.9299 19.7613C22.6378 17.7322 23.6667 15.1128 23.6667 12.2531C23.6667 5.80977 18.4433 0.586426 12 0.586426C5.55667 0.586426 0.333328 5.80977 0.333328 12.2531C0.333328 15.1128 1.36224 17.7322 3.07006 19.7613C3.0793 19.7727 3.08871 19.7838 3.09831 19.7948C5.23834 22.3182 8.43213 23.9198 12 23.9198C15.5679 23.9198 18.7616 22.3182 20.9017 19.7948C20.9113 19.7838 20.9207 19.7727 20.9299 19.7613ZM18.0651 19.3474C16.2086 18.5365 14.158 18.0864 12 18.0864C9.842 18.0864 7.79135 18.5365 5.93492 19.3474C7.5662 20.7433 9.68464 21.5864 12 21.5864C14.3154 21.5864 16.4338 20.7433 18.0651 19.3474ZM12 7.58643C10.7113 7.58643 9.66666 8.63109 9.66666 9.91976C9.66666 11.2084 10.7113 12.2531 12 12.2531C13.2887 12.2531 14.3333 11.2084 14.3333 9.91976C14.3333 8.63109 13.2887 7.58643 12 7.58643ZM7.33333 9.91976C7.33333 7.34243 9.42267 5.25309 12 5.25309C14.5773 5.25309 16.6667 7.34243 16.6667 9.91976C16.6667 12.4971 14.5773 14.5864 12 14.5864C9.42267 14.5864 7.33333 12.4971 7.33333 9.91976Z" fill="#1C1C1C"/>
</svg>
