<svg width="20" height="21" viewBox="0 0 20 21" fill="none" xmlns="http://www.w3.org/2000/svg">
<path fill-rule="evenodd" clip-rule="evenodd" d="M7 2.75293C5.34315 2.75293 4 4.09608 4 5.75293C4 7.40978 5.34315 8.75293 7 8.75293C7.89152 8.75293 8.69221 8.36405 9.24169 7.74667C9.24685 7.74069 9.25209 7.73476 9.2574 7.72888C9.71977 7.20109 10 6.50973 10 5.75293C10 4.99611 9.71975 4.30474 9.25737 3.77695C9.25208 3.77109 9.24686 3.76518 9.24172 3.75922C8.69223 3.14182 7.89153 2.75293 7 2.75293ZM10.0001 1.75264C9.16442 1.1249 8.12565 0.75293 7 0.75293C4.23858 0.75293 2 2.99151 2 5.75293C2 8.51435 4.23858 10.7529 7 10.7529C8.12565 10.7529 9.16442 10.381 10.0001 9.75322C10.8354 10.3804 11.8745 10.7529 13 10.7529C15.7614 10.7529 18 8.51435 18 5.75293C18 2.99151 15.7614 0.75293 13 0.75293C11.8745 0.75293 10.8354 1.12551 10.0001 1.75264ZM11.3338 3.25761C11.7575 3.99198 12 4.84414 12 5.75293C12 6.66172 11.7575 7.51388 11.3338 8.24825C11.8107 8.56749 12.3834 8.75293 13 8.75293C14.6569 8.75293 16 7.40978 16 5.75293C16 4.09607 14.6569 2.75293 13 2.75293C12.3834 2.75293 11.8107 2.93837 11.3338 3.25761ZM7 13.7529C4.23858 13.7529 2 15.9915 2 18.7529H12C12 15.9915 9.76142 13.7529 7 13.7529ZM14 18.7529H18C18 15.9915 15.7614 13.7529 13 13.7529C12.6568 13.7529 12.3221 13.7874 11.999 13.853C13.2368 15.1156 14 16.8451 14 18.7529ZM10.0003 12.4267C9.09095 11.9947 8.07371 11.7529 7 11.7529C3.13401 11.7529 0 14.8869 0 18.7529V19.7529C0 20.3052 0.447715 20.7529 1 20.7529H19C19.5523 20.7529 20 20.3052 20 19.7529V18.7529C20 14.8869 16.866 11.7529 13 11.7529C11.928 11.7529 10.9103 11.9945 10.0003 12.4267Z" fill="#787878"/>
</svg>
